<svg xmlns="http://www.w3.org/2000/svg" width="18" height="22" viewBox="0 0 18 22" fill="none">
<path d="M5.23512 19.1195L15.1073 13.0993C15.4575 12.8845 15.7518 12.5552 15.9575 12.1482C16.1632 11.7412 16.2721 11.2725 16.2721 10.7944C16.2721 10.3163 16.1632 9.84765 15.9575 9.44066C15.7518 9.03367 15.4575 8.70438 15.1073 8.48954L5.23512 2.46932C4.84551 2.23282 4.40558 2.14863 3.97531 2.22821C3.54504 2.3078 3.14536 2.5473 2.83077 2.91406C2.51618 3.28081 2.30199 3.75698 2.2174 4.27763C2.1328 4.79828 2.18193 5.33809 2.35808 5.82344L4.05046 10.4418C4.08886 10.5535 4.10863 10.6733 4.10863 10.7944C4.10863 10.9155 4.08886 11.0354 4.05046 11.147L2.35808 15.7654C2.18193 16.2507 2.1328 16.7905 2.2174 17.3112C2.30199 17.8319 2.51618 18.308 2.83077 18.6748C3.14536 19.0415 3.54504 19.281 3.97531 19.3606C4.40558 19.4402 4.84551 19.356 5.23512 19.1195ZM3.82481 17.3995C3.72 17.2767 3.64884 17.1174 3.62108 16.9435C3.59331 16.7695 3.61028 16.5894 3.66967 16.4276L5.355 11.8093C5.47553 11.479 5.53782 11.1215 5.53782 10.76C5.53782 10.3985 5.47553 10.041 5.355 9.71078L3.64852 5.12682C3.59121 4.96596 3.57559 4.78758 3.60376 4.61559C3.63193 4.4436 3.70254 4.28623 3.80613 4.16457C3.90971 4.04291 4.04132 3.96279 4.1833 3.93495C4.32528 3.9071 4.47084 3.93286 4.60048 4.00878L14.4727 10.029C14.5882 10.1012 14.6851 10.2108 14.7528 10.3459C14.8205 10.4809 14.8563 10.6361 14.8563 10.7944C14.8563 10.9527 14.8205 11.1079 14.7528 11.243C14.6851 11.378 14.5882 11.4877 14.4727 11.5598L4.60048 17.5801C4.47132 17.6579 4.32571 17.6856 4.18325 17.6594C4.0408 17.6333 3.90832 17.5546 3.80365 17.4339L3.82481 17.3995Z" fill="white"/>
</svg>