<svg xmlns="http://www.w3.org/2000/svg" xmlns:xlink="http://www.w3.org/1999/xlink" width="200" zoomAndPan="magnify" viewBox="0 0 150 74.999997" height="100" preserveAspectRatio="xMidYMid meet" version="1.0"><defs><g/><clipPath id="1247db9f66"><path d="M 0 7.386719 L 150 7.386719 L 150 63 L 0 63 Z M 0 7.386719 " clip-rule="nonzero"/></clipPath><clipPath id="9d2ad1318e"><path d="M 2.25 7.386719 L 147.625 7.386719 C 148.867188 7.386719 149.875 8.394531 149.875 9.636719 L 149.875 60.84375 C 149.875 62.085938 148.867188 63.09375 147.625 63.09375 L 2.25 63.09375 C 1.007812 63.09375 0 62.085938 0 60.84375 L 0 9.636719 C 0 8.394531 1.007812 7.386719 2.25 7.386719 " clip-rule="nonzero"/></clipPath><clipPath id="38a1d64fdb"><path d="M 4.28125 4.941406 L 71.859375 4.941406 L 71.859375 66 L 4.28125 66 Z M 4.28125 4.941406 " clip-rule="nonzero"/></clipPath><clipPath id="4c2b1240df"><path d="M 6.53125 4.941406 L 69.304688 4.941406 C 70.546875 4.941406 71.554688 5.949219 71.554688 7.191406 L 71.554688 63.503906 C 71.554688 64.746094 70.546875 65.753906 69.304688 65.753906 L 6.53125 65.753906 C 5.289062 65.753906 4.28125 64.746094 4.28125 63.503906 L 4.28125 7.191406 C 4.28125 5.949219 5.289062 4.941406 6.53125 4.941406 " clip-rule="nonzero"/></clipPath><clipPath id="1b7abe11dc"><path d="M 5.433594 3.554688 L 70.683594 3.554688 L 70.683594 68.804688 L 5.433594 68.804688 Z M 5.433594 3.554688 " clip-rule="nonzero"/></clipPath></defs><g clip-path="url(#1247db9f66)"><g clip-path="url(#9d2ad1318e)"><path fill="#b2b2b2" d="M 0 7.386719 L 150.050781 7.386719 L 150.050781 62.941406 L 0 62.941406 Z M 0 7.386719 " fill-opacity="1" fill-rule="nonzero"/></g></g><g clip-path="url(#38a1d64fdb)"><g clip-path="url(#4c2b1240df)"><path fill="#02B13F" d="M 4.28125 4.941406 L 71.289062 4.941406 L 71.289062 65.652344 L 4.28125 65.652344 Z M 4.28125 4.941406 " fill-opacity="1" fill-rule="nonzero"/></g></g><g clip-path="url(#1b7abe11dc)"><path fill="#373737" d="M 38.058594 68.804688 C 20.070312 68.804688 5.433594 54.171875 5.433594 36.179688 C 5.433594 18.191406 20.070312 3.554688 38.058594 3.554688 C 56.046875 3.554688 70.683594 18.191406 70.683594 36.179688 C 70.683594 54.171875 56.046875 68.804688 38.058594 68.804688 Z M 38.058594 68.804688 " fill-opacity="1" fill-rule="nonzero"/></g><path fill="#dbdbdb" d="M 29.007812 44.835938 C 28.527344 44.835938 28.039062 44.683594 27.625 44.367188 L 19.40625 38.078125 C 18.851562 37.652344 18.519531 36.992188 18.511719 36.292969 C 18.503906 35.589844 18.820312 34.925781 19.367188 34.488281 L 27.414062 28.027344 C 28.398438 27.238281 29.832031 27.398438 30.621094 28.378906 C 31.410156 29.363281 31.25 30.796875 30.269531 31.585938 L 24.492188 36.222656 L 30.398438 40.746094 C 31.398438 41.511719 31.589844 42.941406 30.824219 43.941406 C 30.375 44.527344 29.695312 44.835938 29.007812 44.835938 Z M 29.007812 44.835938 " fill-opacity="1" fill-rule="nonzero"/><path fill="#dbdbdb" d="M 47.105469 44.835938 C 46.421875 44.835938 45.742188 44.527344 45.292969 43.941406 C 44.527344 42.941406 44.71875 41.511719 45.71875 40.746094 L 51.625 36.222656 L 45.847656 31.585938 C 44.863281 30.796875 44.707031 29.363281 45.496094 28.378906 C 46.285156 27.398438 47.71875 27.238281 48.703125 28.027344 L 56.75 34.488281 C 57.296875 34.925781 57.613281 35.589844 57.605469 36.292969 C 57.59375 36.992188 57.265625 37.652344 56.710938 38.078125 L 48.492188 44.367188 C 48.078125 44.683594 47.589844 44.835938 47.105469 44.835938 Z M 47.105469 44.835938 " fill-opacity="1" fill-rule="nonzero"/><path fill="#dbdbdb" d="M 34.351562 49.203125 C 34.152344 49.203125 33.953125 49.179688 33.75 49.125 C 32.535156 48.792969 31.816406 47.542969 32.144531 46.324219 L 37.96875 24.84375 C 38.300781 23.628906 39.550781 22.910156 40.769531 23.238281 C 41.984375 23.566406 42.703125 24.820312 42.375 26.035156 L 36.550781 47.519531 C 36.273438 48.535156 35.355469 49.203125 34.351562 49.203125 Z M 34.351562 49.203125 " fill-opacity="1" fill-rule="nonzero"/><g fill="#000000" fill-opacity="0.4"><g transform="translate(76.6102, 28.005073)"><g><path d="M 8.96875 -5.28125 C 8.96875 -3.988281 8.800781 -2.957031 8.46875 -2.1875 C 8.132812 -1.425781 7.617188 -0.867188 6.921875 -0.515625 C 6.222656 -0.171875 5.242188 0 3.984375 0 L 1.296875 0 L 1.296875 -10.5625 L 3.953125 -10.5625 C 5.179688 -10.5625 6.148438 -10.382812 6.859375 -10.03125 C 7.578125 -9.6875 8.109375 -9.128906 8.453125 -8.359375 C 8.796875 -7.585938 8.96875 -6.5625 8.96875 -5.28125 Z M 7.484375 -5.296875 C 7.484375 -6.304688 7.367188 -7.09375 7.140625 -7.65625 C 6.910156 -8.226562 6.539062 -8.644531 6.03125 -8.90625 C 5.519531 -9.164062 4.800781 -9.296875 3.875 -9.296875 L 2.703125 -9.296875 L 2.703125 -1.28125 L 3.875 -1.28125 C 4.800781 -1.28125 5.519531 -1.40625 6.03125 -1.65625 C 6.539062 -1.914062 6.910156 -2.328125 7.140625 -2.890625 C 7.367188 -3.460938 7.484375 -4.265625 7.484375 -5.296875 Z M 7.484375 -5.296875 "/></g></g></g><g fill="#000000" fill-opacity="0.4"><g transform="translate(86.471388, 28.005073)"><g><path d="M 5.84375 0 L 5.84375 -1 C 5.4375 -0.644531 5.023438 -0.347656 4.609375 -0.109375 C 4.203125 0.117188 3.738281 0.234375 3.21875 0.234375 C 2.457031 0.234375 1.867188 0.00390625 1.453125 -0.453125 C 1.035156 -0.921875 0.828125 -1.519531 0.828125 -2.25 C 0.828125 -2.800781 0.9375 -3.257812 1.15625 -3.625 C 1.375 -3.988281 1.6875 -4.273438 2.09375 -4.484375 C 2.507812 -4.691406 3.101562 -4.84375 3.875 -4.9375 L 5.84375 -5.109375 L 5.84375 -5.5 C 5.84375 -6.125 5.671875 -6.546875 5.328125 -6.765625 C 4.984375 -6.992188 4.507812 -7.109375 3.90625 -7.109375 C 3.363281 -7.109375 2.945312 -7.007812 2.65625 -6.8125 C 2.363281 -6.625 2.15625 -6.421875 2.03125 -6.203125 L 0.953125 -6.859375 C 1.203125 -7.304688 1.578125 -7.644531 2.078125 -7.875 C 2.578125 -8.113281 3.195312 -8.234375 3.9375 -8.234375 C 5.09375 -8.234375 5.914062 -8.023438 6.40625 -7.609375 C 6.90625 -7.191406 7.15625 -6.46875 7.15625 -5.4375 L 7.15625 0 Z M 5.84375 -4.0625 L 4.5625 -3.9375 C 3.695312 -3.863281 3.082031 -3.695312 2.71875 -3.4375 C 2.363281 -3.175781 2.1875 -2.789062 2.1875 -2.28125 C 2.1875 -1.800781 2.304688 -1.457031 2.546875 -1.25 C 2.785156 -1.039062 3.144531 -0.9375 3.625 -0.9375 C 3.820312 -0.9375 4.015625 -0.972656 4.203125 -1.046875 C 4.398438 -1.117188 4.59375 -1.207031 4.78125 -1.3125 C 4.976562 -1.425781 5.160156 -1.550781 5.328125 -1.6875 C 5.503906 -1.832031 5.675781 -1.972656 5.84375 -2.109375 Z M 5.84375 -4.0625 "/></g></g></g><g fill="#000000" fill-opacity="0.4"><g transform="translate(94.867137, 28.005073)"><g><path d="M 4.484375 0 L 3.1875 0 L 0.390625 -8.015625 L 1.796875 -8.015625 L 3.875 -1.71875 L 5.9375 -8.015625 L 7.296875 -8.015625 Z M 4.484375 0 "/></g></g></g><g fill="#000000" fill-opacity="0.4"><g transform="translate(102.560695, 28.005073)"><g><path d="M 2.8125 -10.046875 C 2.8125 -9.734375 2.742188 -9.519531 2.609375 -9.40625 C 2.472656 -9.300781 2.253906 -9.25 1.953125 -9.25 C 1.628906 -9.25 1.40625 -9.316406 1.28125 -9.453125 C 1.164062 -9.597656 1.109375 -9.796875 1.109375 -10.046875 C 1.109375 -10.316406 1.171875 -10.515625 1.296875 -10.640625 C 1.429688 -10.765625 1.648438 -10.828125 1.953125 -10.828125 C 2.265625 -10.828125 2.484375 -10.765625 2.609375 -10.640625 C 2.742188 -10.523438 2.8125 -10.328125 2.8125 -10.046875 Z M 1.296875 0 L 1.296875 -8.015625 L 2.609375 -8.015625 L 2.609375 0 Z M 1.296875 0 "/></g></g></g><g fill="#000000" fill-opacity="0.4"><g transform="translate(106.468535, 28.005073)"><g><path d="M 6.34375 0 L 6.34375 -0.796875 C 6.039062 -0.503906 5.675781 -0.257812 5.25 -0.0625 C 4.832031 0.132812 4.382812 0.234375 3.90625 0.234375 C 2.945312 0.234375 2.203125 -0.125 1.671875 -0.84375 C 1.148438 -1.570312 0.890625 -2.601562 0.890625 -3.9375 C 0.890625 -5.25 1.175781 -6.289062 1.75 -7.0625 C 2.320312 -7.84375 3.109375 -8.234375 4.109375 -8.234375 C 4.921875 -8.234375 5.664062 -7.941406 6.34375 -7.359375 L 6.34375 -11.375 L 7.671875 -11.375 L 7.671875 0 Z M 6.34375 -6.203125 C 5.644531 -6.785156 4.957031 -7.078125 4.28125 -7.078125 C 3.6875 -7.078125 3.195312 -6.820312 2.8125 -6.3125 C 2.4375 -5.8125 2.25 -5.03125 2.25 -3.96875 C 2.25 -1.945312 2.882812 -0.9375 4.15625 -0.9375 C 4.570312 -0.9375 4.96875 -1.039062 5.34375 -1.25 C 5.726562 -1.457031 6.0625 -1.695312 6.34375 -1.96875 Z M 6.34375 -6.203125 "/></g></g></g><g fill="#02B13F" fill-opacity="1"><g transform="translate(75.919168, 27.314041)"><g><path d="M 8.96875 -5.28125 C 8.96875 -3.988281 8.800781 -2.957031 8.46875 -2.1875 C 8.132812 -1.425781 7.617188 -0.867188 6.921875 -0.515625 C 6.222656 -0.171875 5.242188 0 3.984375 0 L 1.296875 0 L 1.296875 -10.5625 L 3.953125 -10.5625 C 5.179688 -10.5625 6.148438 -10.382812 6.859375 -10.03125 C 7.578125 -9.6875 8.109375 -9.128906 8.453125 -8.359375 C 8.796875 -7.585938 8.96875 -6.5625 8.96875 -5.28125 Z M 7.484375 -5.296875 C 7.484375 -6.304688 7.367188 -7.09375 7.140625 -7.65625 C 6.910156 -8.226562 6.539062 -8.644531 6.03125 -8.90625 C 5.519531 -9.164062 4.800781 -9.296875 3.875 -9.296875 L 2.703125 -9.296875 L 2.703125 -1.28125 L 3.875 -1.28125 C 4.800781 -1.28125 5.519531 -1.40625 6.03125 -1.65625 C 6.539062 -1.914062 6.910156 -2.328125 7.140625 -2.890625 C 7.367188 -3.460938 7.484375 -4.265625 7.484375 -5.296875 Z M 7.484375 -5.296875 "/></g></g></g><g fill="#02B13F" fill-opacity="1"><g transform="translate(85.780356, 27.314041)"><g><path d="M 5.84375 0 L 5.84375 -1 C 5.4375 -0.644531 5.023438 -0.347656 4.609375 -0.109375 C 4.203125 0.117188 3.738281 0.234375 3.21875 0.234375 C 2.457031 0.234375 1.867188 0.00390625 1.453125 -0.453125 C 1.035156 -0.921875 0.828125 -1.519531 0.828125 -2.25 C 0.828125 -2.800781 0.9375 -3.257812 1.15625 -3.625 C 1.375 -3.988281 1.6875 -4.273438 2.09375 -4.484375 C 2.507812 -4.691406 3.101562 -4.84375 3.875 -4.9375 L 5.84375 -5.109375 L 5.84375 -5.5 C 5.84375 -6.125 5.671875 -6.546875 5.328125 -6.765625 C 4.984375 -6.992188 4.507812 -7.109375 3.90625 -7.109375 C 3.363281 -7.109375 2.945312 -7.007812 2.65625 -6.8125 C 2.363281 -6.625 2.15625 -6.421875 2.03125 -6.203125 L 0.953125 -6.859375 C 1.203125 -7.304688 1.578125 -7.644531 2.078125 -7.875 C 2.578125 -8.113281 3.195312 -8.234375 3.9375 -8.234375 C 5.09375 -8.234375 5.914062 -8.023438 6.40625 -7.609375 C 6.90625 -7.191406 7.15625 -6.46875 7.15625 -5.4375 L 7.15625 0 Z M 5.84375 -4.0625 L 4.5625 -3.9375 C 3.695312 -3.863281 3.082031 -3.695312 2.71875 -3.4375 C 2.363281 -3.175781 2.1875 -2.789062 2.1875 -2.28125 C 2.1875 -1.800781 2.304688 -1.457031 2.546875 -1.25 C 2.785156 -1.039062 3.144531 -0.9375 3.625 -0.9375 C 3.820312 -0.9375 4.015625 -0.972656 4.203125 -1.046875 C 4.398438 -1.117188 4.59375 -1.207031 4.78125 -1.3125 C 4.976562 -1.425781 5.160156 -1.550781 5.328125 -1.6875 C 5.503906 -1.832031 5.675781 -1.972656 5.84375 -2.109375 Z M 5.84375 -4.0625 "/></g></g></g><g fill="#02B13F" fill-opacity="1"><g transform="translate(94.176105, 27.314041)"><g><path d="M 4.484375 0 L 3.1875 0 L 0.390625 -8.015625 L 1.796875 -8.015625 L 3.875 -1.71875 L 5.9375 -8.015625 L 7.296875 -8.015625 Z M 4.484375 0 "/></g></g></g><g fill="#02B13F" fill-opacity="1"><g transform="translate(101.869663, 27.314041)"><g><path d="M 2.8125 -10.046875 C 2.8125 -9.734375 2.742188 -9.519531 2.609375 -9.40625 C 2.472656 -9.300781 2.253906 -9.25 1.953125 -9.25 C 1.628906 -9.25 1.40625 -9.316406 1.28125 -9.453125 C 1.164062 -9.597656 1.109375 -9.796875 1.109375 -10.046875 C 1.109375 -10.316406 1.171875 -10.515625 1.296875 -10.640625 C 1.429688 -10.765625 1.648438 -10.828125 1.953125 -10.828125 C 2.265625 -10.828125 2.484375 -10.765625 2.609375 -10.640625 C 2.742188 -10.523438 2.8125 -10.328125 2.8125 -10.046875 Z M 1.296875 0 L 1.296875 -8.015625 L 2.609375 -8.015625 L 2.609375 0 Z M 1.296875 0 "/></g></g></g><g fill="#02B13F" fill-opacity="1"><g transform="translate(105.777503, 27.314041)"><g><path d="M 6.34375 0 L 6.34375 -0.796875 C 6.039062 -0.503906 5.675781 -0.257812 5.25 -0.0625 C 4.832031 0.132812 4.382812 0.234375 3.90625 0.234375 C 2.945312 0.234375 2.203125 -0.125 1.671875 -0.84375 C 1.148438 -1.570312 0.890625 -2.601562 0.890625 -3.9375 C 0.890625 -5.25 1.175781 -6.289062 1.75 -7.0625 C 2.320312 -7.84375 3.109375 -8.234375 4.109375 -8.234375 C 4.921875 -8.234375 5.664062 -7.941406 6.34375 -7.359375 L 6.34375 -11.375 L 7.671875 -11.375 L 7.671875 0 Z M 6.34375 -6.203125 C 5.644531 -6.785156 4.957031 -7.078125 4.28125 -7.078125 C 3.6875 -7.078125 3.195312 -6.820312 2.8125 -6.3125 C 2.4375 -5.8125 2.25 -5.03125 2.25 -3.96875 C 2.25 -1.945312 2.882812 -0.9375 4.15625 -0.9375 C 4.570312 -0.9375 4.96875 -1.039062 5.34375 -1.25 C 5.726562 -1.457031 6.0625 -1.695312 6.34375 -1.96875 Z M 6.34375 -6.203125 "/></g></g></g><g fill="#000000" fill-opacity="0.4"><g transform="translate(76.589848, 42.014719)"><g><path d="M 7.34375 0 L 4.640625 -4.3125 L 2.796875 -4.3125 L 2.796875 0 L 1.390625 0 L 1.390625 -10.5625 L 4.671875 -10.5625 C 5.984375 -10.5625 6.925781 -10.320312 7.5 -9.84375 C 8.070312 -9.363281 8.359375 -8.613281 8.359375 -7.59375 C 8.359375 -6.726562 8.179688 -6.039062 7.828125 -5.53125 C 7.484375 -5.03125 6.914062 -4.695312 6.125 -4.53125 L 9 0 Z M 6.890625 -7.484375 C 6.890625 -8.179688 6.710938 -8.660156 6.359375 -8.921875 C 6.003906 -9.191406 5.4375 -9.328125 4.65625 -9.328125 L 2.796875 -9.328125 L 2.796875 -5.5625 L 4.5625 -5.5625 C 5.15625 -5.5625 5.617188 -5.625 5.953125 -5.75 C 6.296875 -5.875 6.535156 -6.070312 6.671875 -6.34375 C 6.816406 -6.625 6.890625 -7.003906 6.890625 -7.484375 Z M 6.890625 -7.484375 "/></g></g></g><g fill="#000000" fill-opacity="0.4"><g transform="translate(86.031252, 42.014719)"><g><path d="M 7.9375 -3.984375 C 7.9375 -2.597656 7.632812 -1.546875 7.03125 -0.828125 C 6.4375 -0.117188 5.566406 0.234375 4.421875 0.234375 C 3.285156 0.234375 2.410156 -0.113281 1.796875 -0.8125 C 1.191406 -1.519531 0.890625 -2.578125 0.890625 -3.984375 C 0.890625 -5.410156 1.191406 -6.472656 1.796875 -7.171875 C 2.410156 -7.878906 3.285156 -8.234375 4.421875 -8.234375 C 5.578125 -8.234375 6.453125 -7.875 7.046875 -7.15625 C 7.640625 -6.445312 7.9375 -5.390625 7.9375 -3.984375 Z M 6.578125 -3.984375 C 6.578125 -5.078125 6.394531 -5.867188 6.03125 -6.359375 C 5.675781 -6.859375 5.140625 -7.109375 4.421875 -7.109375 C 3.691406 -7.109375 3.144531 -6.859375 2.78125 -6.359375 C 2.425781 -5.859375 2.25 -5.066406 2.25 -3.984375 C 2.25 -2.941406 2.421875 -2.164062 2.765625 -1.65625 C 3.109375 -1.15625 3.660156 -0.90625 4.421875 -0.90625 C 5.148438 -0.90625 5.691406 -1.15625 6.046875 -1.65625 C 6.398438 -2.15625 6.578125 -2.929688 6.578125 -3.984375 Z M 6.578125 -3.984375 "/></g></g></g><g fill="#000000" fill-opacity="0.4"><g transform="translate(94.862056, 42.014719)"><g><path d="M 6.34375 0 L 6.34375 -0.796875 C 6.039062 -0.503906 5.675781 -0.257812 5.25 -0.0625 C 4.832031 0.132812 4.382812 0.234375 3.90625 0.234375 C 2.945312 0.234375 2.203125 -0.125 1.671875 -0.84375 C 1.148438 -1.570312 0.890625 -2.601562 0.890625 -3.9375 C 0.890625 -5.25 1.175781 -6.289062 1.75 -7.0625 C 2.320312 -7.84375 3.109375 -8.234375 4.109375 -8.234375 C 4.921875 -8.234375 5.664062 -7.941406 6.34375 -7.359375 L 6.34375 -11.375 L 7.671875 -11.375 L 7.671875 0 Z M 6.34375 -6.203125 C 5.644531 -6.785156 4.957031 -7.078125 4.28125 -7.078125 C 3.6875 -7.078125 3.195312 -6.820312 2.8125 -6.3125 C 2.4375 -5.8125 2.25 -5.03125 2.25 -3.96875 C 2.25 -1.945312 2.882812 -0.9375 4.15625 -0.9375 C 4.570312 -0.9375 4.96875 -1.039062 5.34375 -1.25 C 5.726562 -1.457031 6.0625 -1.695312 6.34375 -1.96875 Z M 6.34375 -6.203125 "/></g></g></g><g fill="#000000" fill-opacity="0.4"><g transform="translate(103.82261, 42.014719)"><g><path d="M 5.625 -6.71875 C 5.488281 -6.769531 5.285156 -6.796875 5.015625 -6.796875 C 4.617188 -6.796875 4.238281 -6.707031 3.875 -6.53125 C 3.519531 -6.351562 3.097656 -6.019531 2.609375 -5.53125 L 2.609375 0 L 1.296875 0 L 1.296875 -8.015625 L 2.609375 -8.015625 L 2.609375 -6.71875 C 2.972656 -7.082031 3.359375 -7.410156 3.765625 -7.703125 C 4.171875 -7.992188 4.617188 -8.140625 5.109375 -8.140625 C 5.441406 -8.140625 5.707031 -8.082031 5.90625 -7.96875 Z M 5.625 -6.71875 "/></g></g></g><g fill="#000000" fill-opacity="0.4"><g transform="translate(110.01257, 42.014719)"><g><path d="M 2.171875 -9.21875 L 1.078125 -9.21875 L 2.4375 -11.984375 L 4.234375 -11.984375 Z M 1.296875 0 L 1.296875 -8.015625 L 2.609375 -8.015625 L 2.609375 0 Z M 1.296875 0 "/></g></g></g><g fill="#000000" fill-opacity="0.4"><g transform="translate(113.920409, 42.014719)"><g><path d="M 7.671875 -0.171875 C 7.671875 0.898438 7.40625 1.695312 6.875 2.21875 C 6.34375 2.75 5.457031 3.015625 4.21875 3.015625 C 3.039062 3.015625 2.070312 2.765625 1.3125 2.265625 L 1.796875 1.203125 C 2.484375 1.679688 3.289062 1.921875 4.21875 1.921875 C 4.96875 1.921875 5.507812 1.765625 5.84375 1.453125 C 6.175781 1.140625 6.34375 0.625 6.34375 -0.09375 L 6.34375 -1.03125 C 6.039062 -0.738281 5.679688 -0.492188 5.265625 -0.296875 C 4.847656 -0.0976562 4.394531 0 3.90625 0 C 2.925781 0 2.175781 -0.347656 1.65625 -1.046875 C 1.144531 -1.742188 0.890625 -2.753906 0.890625 -4.078125 C 0.890625 -5.390625 1.175781 -6.410156 1.75 -7.140625 C 2.332031 -7.867188 3.117188 -8.234375 4.109375 -8.234375 C 4.921875 -8.234375 5.664062 -7.941406 6.34375 -7.359375 L 6.34375 -8.015625 L 7.671875 -8.015625 Z M 6.34375 -6.203125 C 5.644531 -6.785156 4.957031 -7.078125 4.28125 -7.078125 C 3.613281 -7.078125 3.109375 -6.816406 2.765625 -6.296875 C 2.421875 -5.773438 2.25 -5.046875 2.25 -4.109375 C 2.25 -3.085938 2.410156 -2.34375 2.734375 -1.875 C 3.054688 -1.40625 3.53125 -1.171875 4.15625 -1.171875 C 4.894531 -1.171875 5.625 -1.515625 6.34375 -2.203125 Z M 6.34375 -6.203125 "/></g></g></g><g fill="#000000" fill-opacity="0.4"><g transform="translate(122.880962, 42.014719)"><g><path d="M 6.265625 0 L 6.265625 -1.1875 C 5.859375 -0.78125 5.410156 -0.441406 4.921875 -0.171875 C 4.429688 0.0976562 3.953125 0.234375 3.484375 0.234375 C 2.953125 0.234375 2.519531 0.132812 2.1875 -0.0625 C 1.851562 -0.257812 1.609375 -0.5625 1.453125 -0.96875 C 1.304688 -1.375 1.234375 -1.9375 1.234375 -2.65625 L 1.234375 -8.015625 L 2.546875 -8.015625 L 2.546875 -3.28125 C 2.546875 -2.519531 2.582031 -2.007812 2.65625 -1.75 C 2.738281 -1.5 2.867188 -1.316406 3.046875 -1.203125 C 3.222656 -1.085938 3.472656 -1.03125 3.796875 -1.03125 C 4.128906 -1.03125 4.519531 -1.15625 4.96875 -1.40625 C 5.414062 -1.664062 5.847656 -1.976562 6.265625 -2.34375 L 6.265625 -8.015625 L 7.578125 -8.015625 L 7.578125 0 Z M 6.265625 0 "/></g></g></g><g fill="#000000" fill-opacity="0.4"><g transform="translate(131.757562, 42.014719)"><g><path d="M 2.25 -3.84375 C 2.25 -2.789062 2.429688 -2.035156 2.796875 -1.578125 C 3.160156 -1.128906 3.738281 -0.90625 4.53125 -0.90625 C 4.894531 -0.90625 5.207031 -0.976562 5.46875 -1.125 C 5.738281 -1.28125 6 -1.523438 6.25 -1.859375 L 7.34375 -1.1875 C 7.03125 -0.726562 6.65625 -0.375 6.21875 -0.125 C 5.78125 0.113281 5.1875 0.234375 4.4375 0.234375 C 3.25 0.234375 2.359375 -0.109375 1.765625 -0.796875 C 1.179688 -1.492188 0.890625 -2.539062 0.890625 -3.9375 C 0.890625 -5.40625 1.175781 -6.488281 1.75 -7.1875 C 2.320312 -7.882812 3.1875 -8.234375 4.34375 -8.234375 C 5.382812 -8.234375 6.164062 -7.9375 6.6875 -7.34375 C 7.207031 -6.75 7.46875 -5.828125 7.46875 -4.578125 L 7.46875 -3.84375 Z M 6.171875 -4.875 C 6.160156 -5.59375 6.007812 -6.148438 5.71875 -6.546875 C 5.425781 -6.941406 4.953125 -7.140625 4.296875 -7.140625 C 3.671875 -7.140625 3.203125 -6.960938 2.890625 -6.609375 C 2.578125 -6.253906 2.367188 -5.675781 2.265625 -4.875 Z M 6.171875 -4.875 "/></g></g></g><g fill="#000000" fill-opacity="0.4"><g transform="translate(140.008296, 42.014719)"><g><path d="M 0.625 0 L 0.625 -1 L 4.796875 -6.90625 L 0.71875 -6.90625 L 0.71875 -8.015625 L 6.390625 -8.015625 L 6.390625 -7.0625 L 2.1875 -1.109375 L 6.5 -1.109375 L 6.5 0 Z M 0.625 0 "/></g></g></g><g fill="#02B13F" fill-opacity="1"><g transform="translate(75.898813, 41.323688)"><g><path d="M 7.34375 0 L 4.640625 -4.3125 L 2.796875 -4.3125 L 2.796875 0 L 1.390625 0 L 1.390625 -10.5625 L 4.671875 -10.5625 C 5.984375 -10.5625 6.925781 -10.320312 7.5 -9.84375 C 8.070312 -9.363281 8.359375 -8.613281 8.359375 -7.59375 C 8.359375 -6.726562 8.179688 -6.039062 7.828125 -5.53125 C 7.484375 -5.03125 6.914062 -4.695312 6.125 -4.53125 L 9 0 Z M 6.890625 -7.484375 C 6.890625 -8.179688 6.710938 -8.660156 6.359375 -8.921875 C 6.003906 -9.191406 5.4375 -9.328125 4.65625 -9.328125 L 2.796875 -9.328125 L 2.796875 -5.5625 L 4.5625 -5.5625 C 5.15625 -5.5625 5.617188 -5.625 5.953125 -5.75 C 6.296875 -5.875 6.535156 -6.070312 6.671875 -6.34375 C 6.816406 -6.625 6.890625 -7.003906 6.890625 -7.484375 Z M 6.890625 -7.484375 "/></g></g></g><g fill="#02B13F" fill-opacity="1"><g transform="translate(85.340218, 41.323688)"><g><path d="M 7.9375 -3.984375 C 7.9375 -2.597656 7.632812 -1.546875 7.03125 -0.828125 C 6.4375 -0.117188 5.566406 0.234375 4.421875 0.234375 C 3.285156 0.234375 2.410156 -0.113281 1.796875 -0.8125 C 1.191406 -1.519531 0.890625 -2.578125 0.890625 -3.984375 C 0.890625 -5.410156 1.191406 -6.472656 1.796875 -7.171875 C 2.410156 -7.878906 3.285156 -8.234375 4.421875 -8.234375 C 5.578125 -8.234375 6.453125 -7.875 7.046875 -7.15625 C 7.640625 -6.445312 7.9375 -5.390625 7.9375 -3.984375 Z M 6.578125 -3.984375 C 6.578125 -5.078125 6.394531 -5.867188 6.03125 -6.359375 C 5.675781 -6.859375 5.140625 -7.109375 4.421875 -7.109375 C 3.691406 -7.109375 3.144531 -6.859375 2.78125 -6.359375 C 2.425781 -5.859375 2.25 -5.066406 2.25 -3.984375 C 2.25 -2.941406 2.421875 -2.164062 2.765625 -1.65625 C 3.109375 -1.15625 3.660156 -0.90625 4.421875 -0.90625 C 5.148438 -0.90625 5.691406 -1.15625 6.046875 -1.65625 C 6.398438 -2.15625 6.578125 -2.929688 6.578125 -3.984375 Z M 6.578125 -3.984375 "/></g></g></g><g fill="#02B13F" fill-opacity="1"><g transform="translate(94.171022, 41.323688)"><g><path d="M 6.34375 0 L 6.34375 -0.796875 C 6.039062 -0.503906 5.675781 -0.257812 5.25 -0.0625 C 4.832031 0.132812 4.382812 0.234375 3.90625 0.234375 C 2.945312 0.234375 2.203125 -0.125 1.671875 -0.84375 C 1.148438 -1.570312 0.890625 -2.601562 0.890625 -3.9375 C 0.890625 -5.25 1.175781 -6.289062 1.75 -7.0625 C 2.320312 -7.84375 3.109375 -8.234375 4.109375 -8.234375 C 4.921875 -8.234375 5.664062 -7.941406 6.34375 -7.359375 L 6.34375 -11.375 L 7.671875 -11.375 L 7.671875 0 Z M 6.34375 -6.203125 C 5.644531 -6.785156 4.957031 -7.078125 4.28125 -7.078125 C 3.6875 -7.078125 3.195312 -6.820312 2.8125 -6.3125 C 2.4375 -5.8125 2.25 -5.03125 2.25 -3.96875 C 2.25 -1.945312 2.882812 -0.9375 4.15625 -0.9375 C 4.570312 -0.9375 4.96875 -1.039062 5.34375 -1.25 C 5.726562 -1.457031 6.0625 -1.695312 6.34375 -1.96875 Z M 6.34375 -6.203125 "/></g></g></g><g fill="#02B13F" fill-opacity="1"><g transform="translate(103.131575, 41.323688)"><g><path d="M 5.625 -6.71875 C 5.488281 -6.769531 5.285156 -6.796875 5.015625 -6.796875 C 4.617188 -6.796875 4.238281 -6.707031 3.875 -6.53125 C 3.519531 -6.351562 3.097656 -6.019531 2.609375 -5.53125 L 2.609375 0 L 1.296875 0 L 1.296875 -8.015625 L 2.609375 -8.015625 L 2.609375 -6.71875 C 2.972656 -7.082031 3.359375 -7.410156 3.765625 -7.703125 C 4.171875 -7.992188 4.617188 -8.140625 5.109375 -8.140625 C 5.441406 -8.140625 5.707031 -8.082031 5.90625 -7.96875 Z M 5.625 -6.71875 "/></g></g></g><g fill="#02B13F" fill-opacity="1"><g transform="translate(109.321535, 41.323688)"><g><path d="M 2.171875 -9.21875 L 1.078125 -9.21875 L 2.4375 -11.984375 L 4.234375 -11.984375 Z M 1.296875 0 L 1.296875 -8.015625 L 2.609375 -8.015625 L 2.609375 0 Z M 1.296875 0 "/></g></g></g><g fill="#02B13F" fill-opacity="1"><g transform="translate(113.229375, 41.323688)"><g><path d="M 7.671875 -0.171875 C 7.671875 0.898438 7.40625 1.695312 6.875 2.21875 C 6.34375 2.75 5.457031 3.015625 4.21875 3.015625 C 3.039062 3.015625 2.070312 2.765625 1.3125 2.265625 L 1.796875 1.203125 C 2.484375 1.679688 3.289062 1.921875 4.21875 1.921875 C 4.96875 1.921875 5.507812 1.765625 5.84375 1.453125 C 6.175781 1.140625 6.34375 0.625 6.34375 -0.09375 L 6.34375 -1.03125 C 6.039062 -0.738281 5.679688 -0.492188 5.265625 -0.296875 C 4.847656 -0.0976562 4.394531 0 3.90625 0 C 2.925781 0 2.175781 -0.347656 1.65625 -1.046875 C 1.144531 -1.742188 0.890625 -2.753906 0.890625 -4.078125 C 0.890625 -5.390625 1.175781 -6.410156 1.75 -7.140625 C 2.332031 -7.867188 3.117188 -8.234375 4.109375 -8.234375 C 4.921875 -8.234375 5.664062 -7.941406 6.34375 -7.359375 L 6.34375 -8.015625 L 7.671875 -8.015625 Z M 6.34375 -6.203125 C 5.644531 -6.785156 4.957031 -7.078125 4.28125 -7.078125 C 3.613281 -7.078125 3.109375 -6.816406 2.765625 -6.296875 C 2.421875 -5.773438 2.25 -5.046875 2.25 -4.109375 C 2.25 -3.085938 2.410156 -2.34375 2.734375 -1.875 C 3.054688 -1.40625 3.53125 -1.171875 4.15625 -1.171875 C 4.894531 -1.171875 5.625 -1.515625 6.34375 -2.203125 Z M 6.34375 -6.203125 "/></g></g></g><g fill="#02B13F" fill-opacity="1"><g transform="translate(122.189928, 41.323688)"><g><path d="M 6.265625 0 L 6.265625 -1.1875 C 5.859375 -0.78125 5.410156 -0.441406 4.921875 -0.171875 C 4.429688 0.0976562 3.953125 0.234375 3.484375 0.234375 C 2.953125 0.234375 2.519531 0.132812 2.1875 -0.0625 C 1.851562 -0.257812 1.609375 -0.5625 1.453125 -0.96875 C 1.304688 -1.375 1.234375 -1.9375 1.234375 -2.65625 L 1.234375 -8.015625 L 2.546875 -8.015625 L 2.546875 -3.28125 C 2.546875 -2.519531 2.582031 -2.007812 2.65625 -1.75 C 2.738281 -1.5 2.867188 -1.316406 3.046875 -1.203125 C 3.222656 -1.085938 3.472656 -1.03125 3.796875 -1.03125 C 4.128906 -1.03125 4.519531 -1.15625 4.96875 -1.40625 C 5.414062 -1.664062 5.847656 -1.976562 6.265625 -2.34375 L 6.265625 -8.015625 L 7.578125 -8.015625 L 7.578125 0 Z M 6.265625 0 "/></g></g></g><g fill="#02B13F" fill-opacity="1"><g transform="translate(131.066527, 41.323688)"><g><path d="M 2.25 -3.84375 C 2.25 -2.789062 2.429688 -2.035156 2.796875 -1.578125 C 3.160156 -1.128906 3.738281 -0.90625 4.53125 -0.90625 C 4.894531 -0.90625 5.207031 -0.976562 5.46875 -1.125 C 5.738281 -1.28125 6 -1.523438 6.25 -1.859375 L 7.34375 -1.1875 C 7.03125 -0.726562 6.65625 -0.375 6.21875 -0.125 C 5.78125 0.113281 5.1875 0.234375 4.4375 0.234375 C 3.25 0.234375 2.359375 -0.109375 1.765625 -0.796875 C 1.179688 -1.492188 0.890625 -2.539062 0.890625 -3.9375 C 0.890625 -5.40625 1.175781 -6.488281 1.75 -7.1875 C 2.320312 -7.882812 3.1875 -8.234375 4.34375 -8.234375 C 5.382812 -8.234375 6.164062 -7.9375 6.6875 -7.34375 C 7.207031 -6.75 7.46875 -5.828125 7.46875 -4.578125 L 7.46875 -3.84375 Z M 6.171875 -4.875 C 6.160156 -5.59375 6.007812 -6.148438 5.71875 -6.546875 C 5.425781 -6.941406 4.953125 -7.140625 4.296875 -7.140625 C 3.671875 -7.140625 3.203125 -6.960938 2.890625 -6.609375 C 2.578125 -6.253906 2.367188 -5.675781 2.265625 -4.875 Z M 6.171875 -4.875 "/></g></g></g><g fill="#02B13F" fill-opacity="1"><g transform="translate(139.317262, 41.323688)"><g><path d="M 0.625 0 L 0.625 -1 L 4.796875 -6.90625 L 0.71875 -6.90625 L 0.71875 -8.015625 L 6.390625 -8.015625 L 6.390625 -7.0625 L 2.1875 -1.109375 L 6.5 -1.109375 L 6.5 0 Z M 0.625 0 "/></g></g></g><g fill="#e27a3f" fill-opacity="0.4"><g transform="translate(77.642156, 50.902932)"><g><path d="M 2.734375 -1.546875 C 2.734375 -1.171875 2.679688 -0.867188 2.578125 -0.640625 C 2.472656 -0.421875 2.316406 -0.257812 2.109375 -0.15625 C 1.910156 -0.0507812 1.625 0 1.25 0 L 0.3125 0 L 0.3125 -3.078125 L 1.234375 -3.078125 C 1.597656 -3.078125 1.882812 -3.023438 2.09375 -2.921875 C 2.3125 -2.816406 2.472656 -2.648438 2.578125 -2.421875 C 2.679688 -2.203125 2.734375 -1.910156 2.734375 -1.546875 Z M 2.078125 -1.546875 C 2.078125 -1.816406 2.050781 -2.015625 2 -2.140625 C 1.945312 -2.273438 1.859375 -2.367188 1.734375 -2.421875 C 1.609375 -2.484375 1.421875 -2.515625 1.171875 -2.515625 L 0.9375 -2.515625 L 0.9375 -0.578125 L 1.171875 -0.578125 C 1.421875 -0.578125 1.609375 -0.601562 1.734375 -0.65625 C 1.859375 -0.71875 1.945312 -0.8125 2 -0.9375 C 2.050781 -1.070312 2.078125 -1.273438 2.078125 -1.546875 Z M 2.078125 -1.546875 "/></g></g></g><g fill="#e27a3f" fill-opacity="0.4"><g transform="translate(80.847572, 50.902932)"><g><path d="M 0.796875 -1.015625 C 0.804688 -0.804688 0.851562 -0.65625 0.9375 -0.5625 C 1.03125 -0.476562 1.175781 -0.4375 1.375 -0.4375 C 1.488281 -0.4375 1.585938 -0.445312 1.671875 -0.46875 C 1.753906 -0.5 1.828125 -0.554688 1.890625 -0.640625 L 2.328125 -0.328125 C 2.234375 -0.191406 2.109375 -0.09375 1.953125 -0.03125 C 1.804688 0.03125 1.601562 0.0625 1.34375 0.0625 C 0.957031 0.0625 0.671875 -0.0351562 0.484375 -0.234375 C 0.296875 -0.429688 0.203125 -0.738281 0.203125 -1.15625 C 0.203125 -1.988281 0.578125 -2.40625 1.328125 -2.40625 C 1.660156 -2.40625 1.910156 -2.3125 2.078125 -2.125 C 2.253906 -1.9375 2.34375 -1.660156 2.34375 -1.296875 L 2.34375 -1.015625 Z M 1.78125 -1.421875 C 1.78125 -1.773438 1.625 -1.953125 1.3125 -1.953125 C 1.207031 -1.953125 1.125 -1.929688 1.0625 -1.890625 C 1 -1.859375 0.945312 -1.804688 0.90625 -1.734375 C 0.863281 -1.671875 0.832031 -1.566406 0.8125 -1.421875 Z M 1.78125 -1.421875 "/></g></g></g><g fill="#e27a3f" fill-opacity="0.4"><g transform="translate(83.674566, 50.902932)"><g><path d="M 2.109375 -0.671875 C 2.109375 -0.515625 2.066406 -0.378906 1.984375 -0.265625 C 1.910156 -0.160156 1.800781 -0.078125 1.65625 -0.015625 C 1.507812 0.0351562 1.347656 0.0625 1.171875 0.0625 C 0.679688 0.0625 0.347656 -0.0703125 0.171875 -0.34375 L 0.59375 -0.640625 C 0.664062 -0.546875 0.742188 -0.484375 0.828125 -0.453125 C 0.921875 -0.421875 1.019531 -0.40625 1.125 -0.40625 C 1.40625 -0.40625 1.546875 -0.484375 1.546875 -0.640625 C 1.546875 -0.710938 1.503906 -0.765625 1.421875 -0.796875 C 1.347656 -0.835938 1.226562 -0.878906 1.0625 -0.921875 C 0.75 -0.984375 0.53125 -1.078125 0.40625 -1.203125 C 0.28125 -1.328125 0.21875 -1.488281 0.21875 -1.6875 C 0.21875 -1.894531 0.296875 -2.066406 0.453125 -2.203125 C 0.609375 -2.335938 0.84375 -2.40625 1.15625 -2.40625 C 1.363281 -2.40625 1.546875 -2.367188 1.703125 -2.296875 C 1.867188 -2.234375 1.992188 -2.132812 2.078125 -2 L 1.640625 -1.703125 C 1.546875 -1.859375 1.378906 -1.9375 1.140625 -1.9375 C 1.023438 -1.9375 0.9375 -1.914062 0.875 -1.875 C 0.8125 -1.832031 0.78125 -1.78125 0.78125 -1.71875 C 0.78125 -1.65625 0.804688 -1.601562 0.859375 -1.5625 C 0.921875 -1.53125 1.03125 -1.492188 1.1875 -1.453125 C 1.457031 -1.390625 1.648438 -1.320312 1.765625 -1.25 C 1.878906 -1.1875 1.960938 -1.109375 2.015625 -1.015625 C 2.078125 -0.921875 2.109375 -0.804688 2.109375 -0.671875 Z M 2.109375 -0.671875 "/></g></g></g><g fill="#e27a3f" fill-opacity="0.4"><g transform="translate(86.241114, 50.902932)"><g><path d="M 1.703125 0 L 1.703125 -0.25 C 1.472656 -0.0390625 1.226562 0.0625 0.96875 0.0625 C 0.707031 0.0625 0.507812 -0.00390625 0.375 -0.140625 C 0.25 -0.273438 0.1875 -0.445312 0.1875 -0.65625 C 0.1875 -0.820312 0.21875 -0.957031 0.28125 -1.0625 C 0.351562 -1.175781 0.453125 -1.265625 0.578125 -1.328125 C 0.710938 -1.390625 0.90625 -1.429688 1.15625 -1.453125 L 1.65625 -1.5 L 1.65625 -1.609375 C 1.65625 -1.734375 1.613281 -1.820312 1.53125 -1.875 C 1.457031 -1.925781 1.34375 -1.953125 1.1875 -1.953125 C 1.0625 -1.953125 0.953125 -1.929688 0.859375 -1.890625 C 0.773438 -1.847656 0.710938 -1.785156 0.671875 -1.703125 L 0.21875 -2 C 0.300781 -2.125 0.425781 -2.222656 0.59375 -2.296875 C 0.757812 -2.367188 0.960938 -2.40625 1.203125 -2.40625 C 1.566406 -2.40625 1.828125 -2.335938 1.984375 -2.203125 C 2.148438 -2.078125 2.234375 -1.875 2.234375 -1.59375 L 2.234375 0 Z M 1.65625 -1.078125 L 1.359375 -1.0625 C 1.148438 -1.039062 1 -1 0.90625 -0.9375 C 0.820312 -0.875 0.78125 -0.785156 0.78125 -0.671875 C 0.78125 -0.554688 0.804688 -0.476562 0.859375 -0.4375 C 0.921875 -0.40625 1.003906 -0.390625 1.109375 -0.390625 C 1.171875 -0.390625 1.253906 -0.410156 1.359375 -0.453125 C 1.460938 -0.492188 1.5625 -0.554688 1.65625 -0.640625 Z M 1.65625 -1.078125 "/></g></g></g><g fill="#e27a3f" fill-opacity="0.4"><g transform="translate(89.059203, 50.902932)"><g><path d="M 1.734375 -1.78125 C 1.671875 -1.800781 1.59375 -1.8125 1.5 -1.8125 C 1.394531 -1.8125 1.289062 -1.785156 1.1875 -1.734375 C 1.09375 -1.691406 0.992188 -1.617188 0.890625 -1.515625 L 0.890625 0 L 0.328125 0 L 0.328125 -2.34375 L 0.890625 -2.34375 L 0.890625 -2 C 0.992188 -2.101562 1.101562 -2.191406 1.21875 -2.265625 C 1.332031 -2.335938 1.457031 -2.375 1.59375 -2.375 C 1.707031 -2.375 1.789062 -2.359375 1.84375 -2.328125 Z M 1.734375 -1.78125 "/></g></g></g><g fill="#e27a3f" fill-opacity="0.4"><g transform="translate(91.211712, 50.902932)"><g><path d="M 1.734375 -1.78125 C 1.671875 -1.800781 1.59375 -1.8125 1.5 -1.8125 C 1.394531 -1.8125 1.289062 -1.785156 1.1875 -1.734375 C 1.09375 -1.691406 0.992188 -1.617188 0.890625 -1.515625 L 0.890625 0 L 0.328125 0 L 0.328125 -2.34375 L 0.890625 -2.34375 L 0.890625 -2 C 0.992188 -2.101562 1.101562 -2.191406 1.21875 -2.265625 C 1.332031 -2.335938 1.457031 -2.375 1.59375 -2.375 C 1.707031 -2.375 1.789062 -2.359375 1.84375 -2.328125 Z M 1.734375 -1.78125 "/></g></g></g><g fill="#e27a3f" fill-opacity="0.4"><g transform="translate(93.364221, 50.902932)"><g><path d="M 2.453125 -1.15625 C 2.453125 -0.769531 2.359375 -0.46875 2.171875 -0.25 C 1.992188 -0.0390625 1.710938 0.0625 1.328125 0.0625 C 0.578125 0.0625 0.203125 -0.34375 0.203125 -1.15625 C 0.203125 -1.550781 0.289062 -1.859375 0.46875 -2.078125 C 0.65625 -2.296875 0.941406 -2.40625 1.328125 -2.40625 C 1.710938 -2.40625 1.992188 -2.296875 2.171875 -2.078125 C 2.359375 -1.859375 2.453125 -1.550781 2.453125 -1.15625 Z M 1.84375 -1.15625 C 1.84375 -1.414062 1.800781 -1.601562 1.71875 -1.71875 C 1.644531 -1.84375 1.515625 -1.90625 1.328125 -1.90625 C 1.140625 -1.90625 1.003906 -1.84375 0.921875 -1.71875 C 0.835938 -1.601562 0.796875 -1.414062 0.796875 -1.15625 C 0.796875 -0.90625 0.835938 -0.722656 0.921875 -0.609375 C 1.003906 -0.492188 1.140625 -0.4375 1.328125 -0.4375 C 1.515625 -0.4375 1.644531 -0.492188 1.71875 -0.609375 C 1.800781 -0.722656 1.84375 -0.90625 1.84375 -1.15625 Z M 1.84375 -1.15625 "/></g></g></g><g fill="#e27a3f" fill-opacity="0.4"><g transform="translate(96.295837, 50.902932)"><g><path d="M 0.328125 0 L 0.328125 -3.3125 L 0.890625 -3.3125 L 0.890625 0 Z M 0.328125 0 "/></g></g></g><g fill="#e27a3f" fill-opacity="0.4"><g transform="translate(97.800573, 50.902932)"><g><path d="M 0.328125 0 L 0.328125 -3.3125 L 0.890625 -3.3125 L 0.890625 0 Z M 0.328125 0 "/></g></g></g><g fill="#e27a3f" fill-opacity="0.4"><g transform="translate(99.30531, 50.902932)"><g><path d="M 1.703125 0 L 1.703125 -0.25 C 1.472656 -0.0390625 1.226562 0.0625 0.96875 0.0625 C 0.707031 0.0625 0.507812 -0.00390625 0.375 -0.140625 C 0.25 -0.273438 0.1875 -0.445312 0.1875 -0.65625 C 0.1875 -0.820312 0.21875 -0.957031 0.28125 -1.0625 C 0.351562 -1.175781 0.453125 -1.265625 0.578125 -1.328125 C 0.710938 -1.390625 0.90625 -1.429688 1.15625 -1.453125 L 1.65625 -1.5 L 1.65625 -1.609375 C 1.65625 -1.734375 1.613281 -1.820312 1.53125 -1.875 C 1.457031 -1.925781 1.34375 -1.953125 1.1875 -1.953125 C 1.0625 -1.953125 0.953125 -1.929688 0.859375 -1.890625 C 0.773438 -1.847656 0.710938 -1.785156 0.671875 -1.703125 L 0.21875 -2 C 0.300781 -2.125 0.425781 -2.222656 0.59375 -2.296875 C 0.757812 -2.367188 0.960938 -2.40625 1.203125 -2.40625 C 1.566406 -2.40625 1.828125 -2.335938 1.984375 -2.203125 C 2.148438 -2.078125 2.234375 -1.875 2.234375 -1.59375 L 2.234375 0 Z M 1.65625 -1.078125 L 1.359375 -1.0625 C 1.148438 -1.039062 1 -1 0.90625 -0.9375 C 0.820312 -0.875 0.78125 -0.785156 0.78125 -0.671875 C 0.78125 -0.554688 0.804688 -0.476562 0.859375 -0.4375 C 0.921875 -0.40625 1.003906 -0.390625 1.109375 -0.390625 C 1.171875 -0.390625 1.253906 -0.410156 1.359375 -0.453125 C 1.460938 -0.492188 1.5625 -0.554688 1.65625 -0.640625 Z M 1.65625 -1.078125 "/></g></g></g><g fill="#e27a3f" fill-opacity="0.4"><g transform="translate(102.1234, 50.902932)"><g><path d="M 1.859375 0 L 1.859375 -0.234375 C 1.753906 -0.140625 1.640625 -0.0664062 1.515625 -0.015625 C 1.398438 0.0351562 1.265625 0.0625 1.109375 0.0625 C 0.816406 0.0625 0.59375 -0.0390625 0.4375 -0.25 C 0.28125 -0.457031 0.203125 -0.757812 0.203125 -1.15625 C 0.203125 -1.550781 0.285156 -1.859375 0.453125 -2.078125 C 0.628906 -2.296875 0.875 -2.40625 1.1875 -2.40625 C 1.289062 -2.40625 1.398438 -2.378906 1.515625 -2.328125 C 1.640625 -2.285156 1.738281 -2.226562 1.8125 -2.15625 L 1.8125 -3.3125 L 2.390625 -3.3125 L 2.390625 0 Z M 1.8125 -1.6875 C 1.75 -1.738281 1.671875 -1.785156 1.578125 -1.828125 C 1.492188 -1.867188 1.40625 -1.890625 1.3125 -1.890625 C 1.15625 -1.890625 1.03125 -1.820312 0.9375 -1.6875 C 0.84375 -1.5625 0.796875 -1.382812 0.796875 -1.15625 C 0.796875 -0.9375 0.832031 -0.757812 0.90625 -0.625 C 0.988281 -0.5 1.109375 -0.4375 1.265625 -0.4375 C 1.359375 -0.4375 1.453125 -0.457031 1.546875 -0.5 C 1.648438 -0.550781 1.738281 -0.609375 1.8125 -0.671875 Z M 1.8125 -1.6875 "/></g></g></g><g fill="#e27a3f" fill-opacity="0.4"><g transform="translate(105.11512, 50.902932)"><g><path d="M 2.453125 -1.15625 C 2.453125 -0.769531 2.359375 -0.46875 2.171875 -0.25 C 1.992188 -0.0390625 1.710938 0.0625 1.328125 0.0625 C 0.578125 0.0625 0.203125 -0.34375 0.203125 -1.15625 C 0.203125 -1.550781 0.289062 -1.859375 0.46875 -2.078125 C 0.65625 -2.296875 0.941406 -2.40625 1.328125 -2.40625 C 1.710938 -2.40625 1.992188 -2.296875 2.171875 -2.078125 C 2.359375 -1.859375 2.453125 -1.550781 2.453125 -1.15625 Z M 1.84375 -1.15625 C 1.84375 -1.414062 1.800781 -1.601562 1.71875 -1.71875 C 1.644531 -1.84375 1.515625 -1.90625 1.328125 -1.90625 C 1.140625 -1.90625 1.003906 -1.84375 0.921875 -1.71875 C 0.835938 -1.601562 0.796875 -1.414062 0.796875 -1.15625 C 0.796875 -0.90625 0.835938 -0.722656 0.921875 -0.609375 C 1.003906 -0.492188 1.140625 -0.4375 1.328125 -0.4375 C 1.515625 -0.4375 1.644531 -0.492188 1.71875 -0.609375 C 1.800781 -0.722656 1.84375 -0.90625 1.84375 -1.15625 Z M 1.84375 -1.15625 "/></g></g></g><g fill="#e27a3f" fill-opacity="0.4"><g transform="translate(108.046738, 50.902932)"><g><path d="M 1.734375 -1.78125 C 1.671875 -1.800781 1.59375 -1.8125 1.5 -1.8125 C 1.394531 -1.8125 1.289062 -1.785156 1.1875 -1.734375 C 1.09375 -1.691406 0.992188 -1.617188 0.890625 -1.515625 L 0.890625 0 L 0.328125 0 L 0.328125 -2.34375 L 0.890625 -2.34375 L 0.890625 -2 C 0.992188 -2.101562 1.101562 -2.191406 1.21875 -2.265625 C 1.332031 -2.335938 1.457031 -2.375 1.59375 -2.375 C 1.707031 -2.375 1.789062 -2.359375 1.84375 -2.328125 Z M 1.734375 -1.78125 "/></g></g></g><g fill="#e27a3f" fill-opacity="0.4"><g transform="translate(110.199248, 50.902932)"><g/></g></g><g fill="#e27a3f" fill-opacity="0.4"><g transform="translate(111.577102, 50.902932)"><g><path d="M 2.796875 0 L 2.28125 0 L 1.75 -1.484375 L 1.21875 0 L 0.703125 0 L 0.0625 -2.34375 L 0.65625 -2.34375 L 1.015625 -0.828125 L 1.546875 -2.34375 L 1.96875 -2.34375 L 2.5 -0.84375 L 2.859375 -2.34375 L 3.421875 -2.34375 Z M 2.796875 0 "/></g></g></g><g fill="#e27a3f" fill-opacity="0.4"><g transform="translate(115.343478, 50.902932)"><g><path d="M 0.796875 -1.015625 C 0.804688 -0.804688 0.851562 -0.65625 0.9375 -0.5625 C 1.03125 -0.476562 1.175781 -0.4375 1.375 -0.4375 C 1.488281 -0.4375 1.585938 -0.445312 1.671875 -0.46875 C 1.753906 -0.5 1.828125 -0.554688 1.890625 -0.640625 L 2.328125 -0.328125 C 2.234375 -0.191406 2.109375 -0.09375 1.953125 -0.03125 C 1.804688 0.03125 1.601562 0.0625 1.34375 0.0625 C 0.957031 0.0625 0.671875 -0.0351562 0.484375 -0.234375 C 0.296875 -0.429688 0.203125 -0.738281 0.203125 -1.15625 C 0.203125 -1.988281 0.578125 -2.40625 1.328125 -2.40625 C 1.660156 -2.40625 1.910156 -2.3125 2.078125 -2.125 C 2.253906 -1.9375 2.34375 -1.660156 2.34375 -1.296875 L 2.34375 -1.015625 Z M 1.78125 -1.421875 C 1.78125 -1.773438 1.625 -1.953125 1.3125 -1.953125 C 1.207031 -1.953125 1.125 -1.929688 1.0625 -1.890625 C 1 -1.859375 0.945312 -1.804688 0.90625 -1.734375 C 0.863281 -1.671875 0.832031 -1.566406 0.8125 -1.421875 Z M 1.78125 -1.421875 "/></g></g></g><g fill="#e27a3f" fill-opacity="0.4"><g transform="translate(118.170472, 50.902932)"><g><path d="M 2.5 -1.1875 C 2.5 -0.800781 2.414062 -0.492188 2.25 -0.265625 C 2.09375 -0.046875 1.863281 0.0625 1.5625 0.0625 C 1.445312 0.0625 1.316406 0.0351562 1.171875 -0.015625 C 1.035156 -0.0664062 0.925781 -0.132812 0.84375 -0.21875 L 0.765625 0 L 0.328125 0 L 0.328125 -3.3125 L 0.890625 -3.3125 L 0.890625 -2.15625 C 1.109375 -2.320312 1.34375 -2.40625 1.59375 -2.40625 C 1.90625 -2.40625 2.132812 -2.296875 2.28125 -2.078125 C 2.425781 -1.859375 2.5 -1.5625 2.5 -1.1875 Z M 1.90625 -1.171875 C 1.90625 -1.410156 1.867188 -1.585938 1.796875 -1.703125 C 1.722656 -1.828125 1.601562 -1.890625 1.4375 -1.890625 C 1.34375 -1.890625 1.242188 -1.867188 1.140625 -1.828125 C 1.046875 -1.785156 0.960938 -1.734375 0.890625 -1.671875 L 0.890625 -0.640625 C 0.960938 -0.585938 1.039062 -0.539062 1.125 -0.5 C 1.21875 -0.457031 1.304688 -0.4375 1.390625 -0.4375 C 1.554688 -0.4375 1.679688 -0.5 1.765625 -0.625 C 1.859375 -0.75 1.90625 -0.929688 1.90625 -1.171875 Z M 1.90625 -1.171875 "/></g></g></g><g fill="#e27a3f" fill-opacity="0.4"><g transform="translate(121.162192, 50.902932)"><g/></g></g><g fill="#e27a3f" fill-opacity="0.4"><g transform="translate(122.540047, 50.902932)"><g><path d="M 0.96875 -2.515625 L 0.96875 -1.84375 L 2.09375 -1.84375 L 2.09375 -1.28125 L 0.96875 -1.28125 L 0.96875 0 L 0.328125 0 L 0.328125 -3.078125 L 2.3125 -3.078125 L 2.3125 -2.515625 Z M 0.96875 -2.515625 "/></g></g></g><g fill="#e27a3f" fill-opacity="0.4"><g transform="translate(125.280226, 50.902932)"><g><path d="M 1.8125 0 L 1.8125 -0.296875 C 1.707031 -0.191406 1.582031 -0.101562 1.4375 -0.03125 C 1.289062 0.03125 1.148438 0.0625 1.015625 0.0625 C 0.753906 0.0625 0.570312 -0.0078125 0.46875 -0.15625 C 0.363281 -0.300781 0.3125 -0.507812 0.3125 -0.78125 L 0.3125 -2.34375 L 0.875 -2.34375 L 0.875 -1.046875 C 0.875 -0.878906 0.882812 -0.753906 0.90625 -0.671875 C 0.925781 -0.585938 0.957031 -0.523438 1 -0.484375 C 1.039062 -0.453125 1.109375 -0.4375 1.203125 -0.4375 C 1.367188 -0.4375 1.570312 -0.550781 1.8125 -0.78125 L 1.8125 -2.34375 L 2.390625 -2.34375 L 2.390625 0 Z M 1.8125 0 "/></g></g></g><g fill="#e27a3f" fill-opacity="0.4"><g transform="translate(128.271946, 50.902932)"><g><path d="M 0.328125 0 L 0.328125 -3.3125 L 0.890625 -3.3125 L 0.890625 0 Z M 0.328125 0 "/></g></g></g><g fill="#e27a3f" fill-opacity="0.4"><g transform="translate(129.776684, 50.902932)"><g><path d="M 0.328125 0 L 0.328125 -3.3125 L 0.890625 -3.3125 L 0.890625 0 Z M 0.328125 0 "/></g></g></g><g fill="#e27a3f" fill-opacity="0.4"><g transform="translate(131.281422, 50.902932)"><g><path d="M 0.1875 -0.890625 L 0.1875 -1.453125 L 1.578125 -1.453125 L 1.578125 -0.890625 Z M 0.1875 -0.890625 "/></g></g></g><g fill="#e27a3f" fill-opacity="0.4"><g transform="translate(133.313727, 50.902932)"><g><path d="M 2.546875 -0.890625 C 2.546875 -0.585938 2.441406 -0.351562 2.234375 -0.1875 C 2.035156 -0.0195312 1.738281 0.0625 1.34375 0.0625 C 1.070312 0.0625 0.835938 0.0195312 0.640625 -0.0625 C 0.441406 -0.15625 0.273438 -0.304688 0.140625 -0.515625 L 0.625 -0.875 C 0.695312 -0.78125 0.765625 -0.707031 0.828125 -0.65625 C 0.890625 -0.601562 0.960938 -0.5625 1.046875 -0.53125 C 1.140625 -0.507812 1.242188 -0.5 1.359375 -0.5 C 1.535156 -0.5 1.671875 -0.523438 1.765625 -0.578125 C 1.859375 -0.640625 1.90625 -0.726562 1.90625 -0.84375 C 1.90625 -0.914062 1.890625 -0.972656 1.859375 -1.015625 C 1.828125 -1.066406 1.773438 -1.109375 1.703125 -1.140625 C 1.640625 -1.171875 1.523438 -1.207031 1.359375 -1.25 C 1.203125 -1.289062 1.050781 -1.332031 0.90625 -1.375 C 0.757812 -1.425781 0.632812 -1.484375 0.53125 -1.546875 C 0.4375 -1.617188 0.359375 -1.707031 0.296875 -1.8125 C 0.234375 -1.914062 0.203125 -2.050781 0.203125 -2.21875 C 0.203125 -2.507812 0.300781 -2.734375 0.5 -2.890625 C 0.695312 -3.054688 0.976562 -3.140625 1.34375 -3.140625 C 1.882812 -3.140625 2.265625 -2.957031 2.484375 -2.59375 L 2 -2.21875 C 1.914062 -2.351562 1.820312 -2.445312 1.71875 -2.5 C 1.613281 -2.5625 1.488281 -2.59375 1.34375 -2.59375 C 1.195312 -2.59375 1.078125 -2.566406 0.984375 -2.515625 C 0.890625 -2.460938 0.84375 -2.378906 0.84375 -2.265625 C 0.84375 -2.160156 0.890625 -2.082031 0.984375 -2.03125 C 1.085938 -1.976562 1.253906 -1.925781 1.484375 -1.875 C 1.617188 -1.84375 1.75 -1.804688 1.875 -1.765625 C 2 -1.722656 2.113281 -1.664062 2.21875 -1.59375 C 2.320312 -1.53125 2.398438 -1.441406 2.453125 -1.328125 C 2.515625 -1.210938 2.546875 -1.066406 2.546875 -0.890625 Z M 2.546875 -0.890625 "/></g></g></g><g fill="#e27a3f" fill-opacity="0.4"><g transform="translate(136.332159, 50.902932)"><g><path d="M 1.609375 0 C 1.460938 0.0390625 1.300781 0.0625 1.125 0.0625 C 0.851562 0.0625 0.65625 0.00390625 0.53125 -0.109375 C 0.414062 -0.234375 0.359375 -0.429688 0.359375 -0.703125 L 0.359375 -1.875 L 0.0625 -1.875 L 0.0625 -2.34375 L 0.359375 -2.34375 L 0.359375 -2.984375 L 0.9375 -2.984375 L 0.9375 -2.34375 L 1.484375 -2.34375 L 1.484375 -1.875 L 0.9375 -1.875 L 0.9375 -0.78125 C 0.9375 -0.632812 0.957031 -0.535156 1 -0.484375 C 1.050781 -0.429688 1.117188 -0.40625 1.203125 -0.40625 C 1.304688 -0.40625 1.410156 -0.425781 1.515625 -0.46875 Z M 1.609375 0 "/></g></g></g><g fill="#e27a3f" fill-opacity="0.4"><g transform="translate(138.259841, 50.902932)"><g><path d="M 1.703125 0 L 1.703125 -0.25 C 1.472656 -0.0390625 1.226562 0.0625 0.96875 0.0625 C 0.707031 0.0625 0.507812 -0.00390625 0.375 -0.140625 C 0.25 -0.273438 0.1875 -0.445312 0.1875 -0.65625 C 0.1875 -0.820312 0.21875 -0.957031 0.28125 -1.0625 C 0.351562 -1.175781 0.453125 -1.265625 0.578125 -1.328125 C 0.710938 -1.390625 0.90625 -1.429688 1.15625 -1.453125 L 1.65625 -1.5 L 1.65625 -1.609375 C 1.65625 -1.734375 1.613281 -1.820312 1.53125 -1.875 C 1.457031 -1.925781 1.34375 -1.953125 1.1875 -1.953125 C 1.0625 -1.953125 0.953125 -1.929688 0.859375 -1.890625 C 0.773438 -1.847656 0.710938 -1.785156 0.671875 -1.703125 L 0.21875 -2 C 0.300781 -2.125 0.425781 -2.222656 0.59375 -2.296875 C 0.757812 -2.367188 0.960938 -2.40625 1.203125 -2.40625 C 1.566406 -2.40625 1.828125 -2.335938 1.984375 -2.203125 C 2.148438 -2.078125 2.234375 -1.875 2.234375 -1.59375 L 2.234375 0 Z M 1.65625 -1.078125 L 1.359375 -1.0625 C 1.148438 -1.039062 1 -1 0.90625 -0.9375 C 0.820312 -0.875 0.78125 -0.785156 0.78125 -0.671875 C 0.78125 -0.554688 0.804688 -0.476562 0.859375 -0.4375 C 0.921875 -0.40625 1.003906 -0.390625 1.109375 -0.390625 C 1.171875 -0.390625 1.253906 -0.410156 1.359375 -0.453125 C 1.460938 -0.492188 1.5625 -0.554688 1.65625 -0.640625 Z M 1.65625 -1.078125 "/></g></g></g><g fill="#e27a3f" fill-opacity="0.4"><g transform="translate(141.077931, 50.902932)"><g><path d="M 2.25 -0.328125 C 2.164062 -0.203125 2.050781 -0.101562 1.90625 -0.03125 C 1.757812 0.03125 1.570312 0.0625 1.34375 0.0625 C 0.96875 0.0625 0.679688 -0.0351562 0.484375 -0.234375 C 0.296875 -0.441406 0.203125 -0.75 0.203125 -1.15625 C 0.203125 -1.550781 0.296875 -1.859375 0.484375 -2.078125 C 0.671875 -2.296875 0.953125 -2.40625 1.328125 -2.40625 C 1.523438 -2.40625 1.703125 -2.367188 1.859375 -2.296875 C 2.015625 -2.234375 2.132812 -2.132812 2.21875 -2 L 1.796875 -1.703125 C 1.742188 -1.765625 1.679688 -1.8125 1.609375 -1.84375 C 1.535156 -1.882812 1.445312 -1.90625 1.34375 -1.90625 C 1.144531 -1.90625 1.003906 -1.84375 0.921875 -1.71875 C 0.835938 -1.601562 0.796875 -1.414062 0.796875 -1.15625 C 0.796875 -0.90625 0.835938 -0.722656 0.921875 -0.609375 C 1.003906 -0.492188 1.148438 -0.4375 1.359375 -0.4375 C 1.453125 -0.4375 1.535156 -0.445312 1.609375 -0.46875 C 1.679688 -0.5 1.75 -0.554688 1.8125 -0.640625 Z M 2.25 -0.328125 "/></g></g></g><g fill="#e27a3f" fill-opacity="0.4"><g transform="translate(143.71794, 50.902932)"><g><path d="M 1.75 0 L 1.125 -0.96875 L 0.890625 -0.71875 L 0.890625 0 L 0.328125 0 L 0.328125 -3.3125 L 0.890625 -3.3125 L 0.890625 -1.421875 L 1.6875 -2.34375 L 2.34375 -2.34375 L 1.46875 -1.359375 L 2.40625 0 Z M 1.75 0 "/></g></g></g><g fill="#525252" fill-opacity="1"><g transform="translate(77.44068, 50.701456)"><g><path d="M 2.734375 -1.546875 C 2.734375 -1.171875 2.679688 -0.867188 2.578125 -0.640625 C 2.472656 -0.421875 2.316406 -0.257812 2.109375 -0.15625 C 1.910156 -0.0507812 1.625 0 1.25 0 L 0.3125 0 L 0.3125 -3.078125 L 1.234375 -3.078125 C 1.597656 -3.078125 1.882812 -3.023438 2.09375 -2.921875 C 2.3125 -2.816406 2.472656 -2.648438 2.578125 -2.421875 C 2.679688 -2.203125 2.734375 -1.910156 2.734375 -1.546875 Z M 2.078125 -1.546875 C 2.078125 -1.816406 2.050781 -2.015625 2 -2.140625 C 1.945312 -2.273438 1.859375 -2.367188 1.734375 -2.421875 C 1.609375 -2.484375 1.421875 -2.515625 1.171875 -2.515625 L 0.9375 -2.515625 L 0.9375 -0.578125 L 1.171875 -0.578125 C 1.421875 -0.578125 1.609375 -0.601562 1.734375 -0.65625 C 1.859375 -0.71875 1.945312 -0.8125 2 -0.9375 C 2.050781 -1.070312 2.078125 -1.273438 2.078125 -1.546875 Z M 2.078125 -1.546875 "/></g></g></g><g fill="#525252" fill-opacity="1"><g transform="translate(80.646097, 50.701456)"><g><path d="M 0.796875 -1.015625 C 0.804688 -0.804688 0.851562 -0.65625 0.9375 -0.5625 C 1.03125 -0.476562 1.175781 -0.4375 1.375 -0.4375 C 1.488281 -0.4375 1.585938 -0.445312 1.671875 -0.46875 C 1.753906 -0.5 1.828125 -0.554688 1.890625 -0.640625 L 2.328125 -0.328125 C 2.234375 -0.191406 2.109375 -0.09375 1.953125 -0.03125 C 1.804688 0.03125 1.601562 0.0625 1.34375 0.0625 C 0.957031 0.0625 0.671875 -0.0351562 0.484375 -0.234375 C 0.296875 -0.429688 0.203125 -0.738281 0.203125 -1.15625 C 0.203125 -1.988281 0.578125 -2.40625 1.328125 -2.40625 C 1.660156 -2.40625 1.910156 -2.3125 2.078125 -2.125 C 2.253906 -1.9375 2.34375 -1.660156 2.34375 -1.296875 L 2.34375 -1.015625 Z M 1.78125 -1.421875 C 1.78125 -1.773438 1.625 -1.953125 1.3125 -1.953125 C 1.207031 -1.953125 1.125 -1.929688 1.0625 -1.890625 C 1 -1.859375 0.945312 -1.804688 0.90625 -1.734375 C 0.863281 -1.671875 0.832031 -1.566406 0.8125 -1.421875 Z M 1.78125 -1.421875 "/></g></g></g><g fill="#525252" fill-opacity="1"><g transform="translate(83.473091, 50.701456)"><g><path d="M 2.109375 -0.671875 C 2.109375 -0.515625 2.066406 -0.378906 1.984375 -0.265625 C 1.910156 -0.160156 1.800781 -0.078125 1.65625 -0.015625 C 1.507812 0.0351562 1.347656 0.0625 1.171875 0.0625 C 0.679688 0.0625 0.347656 -0.0703125 0.171875 -0.34375 L 0.59375 -0.640625 C 0.664062 -0.546875 0.742188 -0.484375 0.828125 -0.453125 C 0.921875 -0.421875 1.019531 -0.40625 1.125 -0.40625 C 1.40625 -0.40625 1.546875 -0.484375 1.546875 -0.640625 C 1.546875 -0.710938 1.503906 -0.765625 1.421875 -0.796875 C 1.347656 -0.835938 1.226562 -0.878906 1.0625 -0.921875 C 0.75 -0.984375 0.53125 -1.078125 0.40625 -1.203125 C 0.28125 -1.328125 0.21875 -1.488281 0.21875 -1.6875 C 0.21875 -1.894531 0.296875 -2.066406 0.453125 -2.203125 C 0.609375 -2.335938 0.84375 -2.40625 1.15625 -2.40625 C 1.363281 -2.40625 1.546875 -2.367188 1.703125 -2.296875 C 1.867188 -2.234375 1.992188 -2.132812 2.078125 -2 L 1.640625 -1.703125 C 1.546875 -1.859375 1.378906 -1.9375 1.140625 -1.9375 C 1.023438 -1.9375 0.9375 -1.914062 0.875 -1.875 C 0.8125 -1.832031 0.78125 -1.78125 0.78125 -1.71875 C 0.78125 -1.65625 0.804688 -1.601562 0.859375 -1.5625 C 0.921875 -1.53125 1.03125 -1.492188 1.1875 -1.453125 C 1.457031 -1.390625 1.648438 -1.320312 1.765625 -1.25 C 1.878906 -1.1875 1.960938 -1.109375 2.015625 -1.015625 C 2.078125 -0.921875 2.109375 -0.804688 2.109375 -0.671875 Z M 2.109375 -0.671875 "/></g></g></g><g fill="#525252" fill-opacity="1"><g transform="translate(86.039639, 50.701456)"><g><path d="M 1.703125 0 L 1.703125 -0.25 C 1.472656 -0.0390625 1.226562 0.0625 0.96875 0.0625 C 0.707031 0.0625 0.507812 -0.00390625 0.375 -0.140625 C 0.25 -0.273438 0.1875 -0.445312 0.1875 -0.65625 C 0.1875 -0.820312 0.21875 -0.957031 0.28125 -1.0625 C 0.351562 -1.175781 0.453125 -1.265625 0.578125 -1.328125 C 0.710938 -1.390625 0.90625 -1.429688 1.15625 -1.453125 L 1.65625 -1.5 L 1.65625 -1.609375 C 1.65625 -1.734375 1.613281 -1.820312 1.53125 -1.875 C 1.457031 -1.925781 1.34375 -1.953125 1.1875 -1.953125 C 1.0625 -1.953125 0.953125 -1.929688 0.859375 -1.890625 C 0.773438 -1.847656 0.710938 -1.785156 0.671875 -1.703125 L 0.21875 -2 C 0.300781 -2.125 0.425781 -2.222656 0.59375 -2.296875 C 0.757812 -2.367188 0.960938 -2.40625 1.203125 -2.40625 C 1.566406 -2.40625 1.828125 -2.335938 1.984375 -2.203125 C 2.148438 -2.078125 2.234375 -1.875 2.234375 -1.59375 L 2.234375 0 Z M 1.65625 -1.078125 L 1.359375 -1.0625 C 1.148438 -1.039062 1 -1 0.90625 -0.9375 C 0.820312 -0.875 0.78125 -0.785156 0.78125 -0.671875 C 0.78125 -0.554688 0.804688 -0.476562 0.859375 -0.4375 C 0.921875 -0.40625 1.003906 -0.390625 1.109375 -0.390625 C 1.171875 -0.390625 1.253906 -0.410156 1.359375 -0.453125 C 1.460938 -0.492188 1.5625 -0.554688 1.65625 -0.640625 Z M 1.65625 -1.078125 "/></g></g></g><g fill="#525252" fill-opacity="1"><g transform="translate(88.857728, 50.701456)"><g><path d="M 1.734375 -1.78125 C 1.671875 -1.800781 1.59375 -1.8125 1.5 -1.8125 C 1.394531 -1.8125 1.289062 -1.785156 1.1875 -1.734375 C 1.09375 -1.691406 0.992188 -1.617188 0.890625 -1.515625 L 0.890625 0 L 0.328125 0 L 0.328125 -2.34375 L 0.890625 -2.34375 L 0.890625 -2 C 0.992188 -2.101562 1.101562 -2.191406 1.21875 -2.265625 C 1.332031 -2.335938 1.457031 -2.375 1.59375 -2.375 C 1.707031 -2.375 1.789062 -2.359375 1.84375 -2.328125 Z M 1.734375 -1.78125 "/></g></g></g><g fill="#525252" fill-opacity="1"><g transform="translate(91.010237, 50.701456)"><g><path d="M 1.734375 -1.78125 C 1.671875 -1.800781 1.59375 -1.8125 1.5 -1.8125 C 1.394531 -1.8125 1.289062 -1.785156 1.1875 -1.734375 C 1.09375 -1.691406 0.992188 -1.617188 0.890625 -1.515625 L 0.890625 0 L 0.328125 0 L 0.328125 -2.34375 L 0.890625 -2.34375 L 0.890625 -2 C 0.992188 -2.101562 1.101562 -2.191406 1.21875 -2.265625 C 1.332031 -2.335938 1.457031 -2.375 1.59375 -2.375 C 1.707031 -2.375 1.789062 -2.359375 1.84375 -2.328125 Z M 1.734375 -1.78125 "/></g></g></g><g fill="#525252" fill-opacity="1"><g transform="translate(93.162746, 50.701456)"><g><path d="M 2.453125 -1.15625 C 2.453125 -0.769531 2.359375 -0.46875 2.171875 -0.25 C 1.992188 -0.0390625 1.710938 0.0625 1.328125 0.0625 C 0.578125 0.0625 0.203125 -0.34375 0.203125 -1.15625 C 0.203125 -1.550781 0.289062 -1.859375 0.46875 -2.078125 C 0.65625 -2.296875 0.941406 -2.40625 1.328125 -2.40625 C 1.710938 -2.40625 1.992188 -2.296875 2.171875 -2.078125 C 2.359375 -1.859375 2.453125 -1.550781 2.453125 -1.15625 Z M 1.84375 -1.15625 C 1.84375 -1.414062 1.800781 -1.601562 1.71875 -1.71875 C 1.644531 -1.84375 1.515625 -1.90625 1.328125 -1.90625 C 1.140625 -1.90625 1.003906 -1.84375 0.921875 -1.71875 C 0.835938 -1.601562 0.796875 -1.414062 0.796875 -1.15625 C 0.796875 -0.90625 0.835938 -0.722656 0.921875 -0.609375 C 1.003906 -0.492188 1.140625 -0.4375 1.328125 -0.4375 C 1.515625 -0.4375 1.644531 -0.492188 1.71875 -0.609375 C 1.800781 -0.722656 1.84375 -0.90625 1.84375 -1.15625 Z M 1.84375 -1.15625 "/></g></g></g><g fill="#525252" fill-opacity="1"><g transform="translate(96.094362, 50.701456)"><g><path d="M 0.328125 0 L 0.328125 -3.3125 L 0.890625 -3.3125 L 0.890625 0 Z M 0.328125 0 "/></g></g></g><g fill="#525252" fill-opacity="1"><g transform="translate(97.599098, 50.701456)"><g><path d="M 0.328125 0 L 0.328125 -3.3125 L 0.890625 -3.3125 L 0.890625 0 Z M 0.328125 0 "/></g></g></g><g fill="#525252" fill-opacity="1"><g transform="translate(99.103835, 50.701456)"><g><path d="M 1.703125 0 L 1.703125 -0.25 C 1.472656 -0.0390625 1.226562 0.0625 0.96875 0.0625 C 0.707031 0.0625 0.507812 -0.00390625 0.375 -0.140625 C 0.25 -0.273438 0.1875 -0.445312 0.1875 -0.65625 C 0.1875 -0.820312 0.21875 -0.957031 0.28125 -1.0625 C 0.351562 -1.175781 0.453125 -1.265625 0.578125 -1.328125 C 0.710938 -1.390625 0.90625 -1.429688 1.15625 -1.453125 L 1.65625 -1.5 L 1.65625 -1.609375 C 1.65625 -1.734375 1.613281 -1.820312 1.53125 -1.875 C 1.457031 -1.925781 1.34375 -1.953125 1.1875 -1.953125 C 1.0625 -1.953125 0.953125 -1.929688 0.859375 -1.890625 C 0.773438 -1.847656 0.710938 -1.785156 0.671875 -1.703125 L 0.21875 -2 C 0.300781 -2.125 0.425781 -2.222656 0.59375 -2.296875 C 0.757812 -2.367188 0.960938 -2.40625 1.203125 -2.40625 C 1.566406 -2.40625 1.828125 -2.335938 1.984375 -2.203125 C 2.148438 -2.078125 2.234375 -1.875 2.234375 -1.59375 L 2.234375 0 Z M 1.65625 -1.078125 L 1.359375 -1.0625 C 1.148438 -1.039062 1 -1 0.90625 -0.9375 C 0.820312 -0.875 0.78125 -0.785156 0.78125 -0.671875 C 0.78125 -0.554688 0.804688 -0.476562 0.859375 -0.4375 C 0.921875 -0.40625 1.003906 -0.390625 1.109375 -0.390625 C 1.171875 -0.390625 1.253906 -0.410156 1.359375 -0.453125 C 1.460938 -0.492188 1.5625 -0.554688 1.65625 -0.640625 Z M 1.65625 -1.078125 "/></g></g></g><g fill="#525252" fill-opacity="1"><g transform="translate(101.921925, 50.701456)"><g><path d="M 1.859375 0 L 1.859375 -0.234375 C 1.753906 -0.140625 1.640625 -0.0664062 1.515625 -0.015625 C 1.398438 0.0351562 1.265625 0.0625 1.109375 0.0625 C 0.816406 0.0625 0.59375 -0.0390625 0.4375 -0.25 C 0.28125 -0.457031 0.203125 -0.757812 0.203125 -1.15625 C 0.203125 -1.550781 0.285156 -1.859375 0.453125 -2.078125 C 0.628906 -2.296875 0.875 -2.40625 1.1875 -2.40625 C 1.289062 -2.40625 1.398438 -2.378906 1.515625 -2.328125 C 1.640625 -2.285156 1.738281 -2.226562 1.8125 -2.15625 L 1.8125 -3.3125 L 2.390625 -3.3125 L 2.390625 0 Z M 1.8125 -1.6875 C 1.75 -1.738281 1.671875 -1.785156 1.578125 -1.828125 C 1.492188 -1.867188 1.40625 -1.890625 1.3125 -1.890625 C 1.15625 -1.890625 1.03125 -1.820312 0.9375 -1.6875 C 0.84375 -1.5625 0.796875 -1.382812 0.796875 -1.15625 C 0.796875 -0.9375 0.832031 -0.757812 0.90625 -0.625 C 0.988281 -0.5 1.109375 -0.4375 1.265625 -0.4375 C 1.359375 -0.4375 1.453125 -0.457031 1.546875 -0.5 C 1.648438 -0.550781 1.738281 -0.609375 1.8125 -0.671875 Z M 1.8125 -1.6875 "/></g></g></g><g fill="#525252" fill-opacity="1"><g transform="translate(104.913645, 50.701456)"><g><path d="M 2.453125 -1.15625 C 2.453125 -0.769531 2.359375 -0.46875 2.171875 -0.25 C 1.992188 -0.0390625 1.710938 0.0625 1.328125 0.0625 C 0.578125 0.0625 0.203125 -0.34375 0.203125 -1.15625 C 0.203125 -1.550781 0.289062 -1.859375 0.46875 -2.078125 C 0.65625 -2.296875 0.941406 -2.40625 1.328125 -2.40625 C 1.710938 -2.40625 1.992188 -2.296875 2.171875 -2.078125 C 2.359375 -1.859375 2.453125 -1.550781 2.453125 -1.15625 Z M 1.84375 -1.15625 C 1.84375 -1.414062 1.800781 -1.601562 1.71875 -1.71875 C 1.644531 -1.84375 1.515625 -1.90625 1.328125 -1.90625 C 1.140625 -1.90625 1.003906 -1.84375 0.921875 -1.71875 C 0.835938 -1.601562 0.796875 -1.414062 0.796875 -1.15625 C 0.796875 -0.90625 0.835938 -0.722656 0.921875 -0.609375 C 1.003906 -0.492188 1.140625 -0.4375 1.328125 -0.4375 C 1.515625 -0.4375 1.644531 -0.492188 1.71875 -0.609375 C 1.800781 -0.722656 1.84375 -0.90625 1.84375 -1.15625 Z M 1.84375 -1.15625 "/></g></g></g><g fill="#525252" fill-opacity="1"><g transform="translate(107.845262, 50.701456)"><g><path d="M 1.734375 -1.78125 C 1.671875 -1.800781 1.59375 -1.8125 1.5 -1.8125 C 1.394531 -1.8125 1.289062 -1.785156 1.1875 -1.734375 C 1.09375 -1.691406 0.992188 -1.617188 0.890625 -1.515625 L 0.890625 0 L 0.328125 0 L 0.328125 -2.34375 L 0.890625 -2.34375 L 0.890625 -2 C 0.992188 -2.101562 1.101562 -2.191406 1.21875 -2.265625 C 1.332031 -2.335938 1.457031 -2.375 1.59375 -2.375 C 1.707031 -2.375 1.789062 -2.359375 1.84375 -2.328125 Z M 1.734375 -1.78125 "/></g></g></g><g fill="#525252" fill-opacity="1"><g transform="translate(109.997772, 50.701456)"><g/></g></g><g fill="#525252" fill-opacity="1"><g transform="translate(111.375627, 50.701456)"><g><path d="M 2.796875 0 L 2.28125 0 L 1.75 -1.484375 L 1.21875 0 L 0.703125 0 L 0.0625 -2.34375 L 0.65625 -2.34375 L 1.015625 -0.828125 L 1.546875 -2.34375 L 1.96875 -2.34375 L 2.5 -0.84375 L 2.859375 -2.34375 L 3.421875 -2.34375 Z M 2.796875 0 "/></g></g></g><g fill="#525252" fill-opacity="1"><g transform="translate(115.142002, 50.701456)"><g><path d="M 0.796875 -1.015625 C 0.804688 -0.804688 0.851562 -0.65625 0.9375 -0.5625 C 1.03125 -0.476562 1.175781 -0.4375 1.375 -0.4375 C 1.488281 -0.4375 1.585938 -0.445312 1.671875 -0.46875 C 1.753906 -0.5 1.828125 -0.554688 1.890625 -0.640625 L 2.328125 -0.328125 C 2.234375 -0.191406 2.109375 -0.09375 1.953125 -0.03125 C 1.804688 0.03125 1.601562 0.0625 1.34375 0.0625 C 0.957031 0.0625 0.671875 -0.0351562 0.484375 -0.234375 C 0.296875 -0.429688 0.203125 -0.738281 0.203125 -1.15625 C 0.203125 -1.988281 0.578125 -2.40625 1.328125 -2.40625 C 1.660156 -2.40625 1.910156 -2.3125 2.078125 -2.125 C 2.253906 -1.9375 2.34375 -1.660156 2.34375 -1.296875 L 2.34375 -1.015625 Z M 1.78125 -1.421875 C 1.78125 -1.773438 1.625 -1.953125 1.3125 -1.953125 C 1.207031 -1.953125 1.125 -1.929688 1.0625 -1.890625 C 1 -1.859375 0.945312 -1.804688 0.90625 -1.734375 C 0.863281 -1.671875 0.832031 -1.566406 0.8125 -1.421875 Z M 1.78125 -1.421875 "/></g></g></g><g fill="#525252" fill-opacity="1"><g transform="translate(117.968997, 50.701456)"><g><path d="M 2.5 -1.1875 C 2.5 -0.800781 2.414062 -0.492188 2.25 -0.265625 C 2.09375 -0.046875 1.863281 0.0625 1.5625 0.0625 C 1.445312 0.0625 1.316406 0.0351562 1.171875 -0.015625 C 1.035156 -0.0664062 0.925781 -0.132812 0.84375 -0.21875 L 0.765625 0 L 0.328125 0 L 0.328125 -3.3125 L 0.890625 -3.3125 L 0.890625 -2.15625 C 1.109375 -2.320312 1.34375 -2.40625 1.59375 -2.40625 C 1.90625 -2.40625 2.132812 -2.296875 2.28125 -2.078125 C 2.425781 -1.859375 2.5 -1.5625 2.5 -1.1875 Z M 1.90625 -1.171875 C 1.90625 -1.410156 1.867188 -1.585938 1.796875 -1.703125 C 1.722656 -1.828125 1.601562 -1.890625 1.4375 -1.890625 C 1.34375 -1.890625 1.242188 -1.867188 1.140625 -1.828125 C 1.046875 -1.785156 0.960938 -1.734375 0.890625 -1.671875 L 0.890625 -0.640625 C 0.960938 -0.585938 1.039062 -0.539062 1.125 -0.5 C 1.21875 -0.457031 1.304688 -0.4375 1.390625 -0.4375 C 1.554688 -0.4375 1.679688 -0.5 1.765625 -0.625 C 1.859375 -0.75 1.90625 -0.929688 1.90625 -1.171875 Z M 1.90625 -1.171875 "/></g></g></g><g fill="#525252" fill-opacity="1"><g transform="translate(120.960717, 50.701456)"><g/></g></g><g fill="#525252" fill-opacity="1"><g transform="translate(122.338571, 50.701456)"><g><path d="M 0.96875 -2.515625 L 0.96875 -1.84375 L 2.09375 -1.84375 L 2.09375 -1.28125 L 0.96875 -1.28125 L 0.96875 0 L 0.328125 0 L 0.328125 -3.078125 L 2.3125 -3.078125 L 2.3125 -2.515625 Z M 0.96875 -2.515625 "/></g></g></g><g fill="#525252" fill-opacity="1"><g transform="translate(125.078751, 50.701456)"><g><path d="M 1.8125 0 L 1.8125 -0.296875 C 1.707031 -0.191406 1.582031 -0.101562 1.4375 -0.03125 C 1.289062 0.03125 1.148438 0.0625 1.015625 0.0625 C 0.753906 0.0625 0.570312 -0.0078125 0.46875 -0.15625 C 0.363281 -0.300781 0.3125 -0.507812 0.3125 -0.78125 L 0.3125 -2.34375 L 0.875 -2.34375 L 0.875 -1.046875 C 0.875 -0.878906 0.882812 -0.753906 0.90625 -0.671875 C 0.925781 -0.585938 0.957031 -0.523438 1 -0.484375 C 1.039062 -0.453125 1.109375 -0.4375 1.203125 -0.4375 C 1.367188 -0.4375 1.570312 -0.550781 1.8125 -0.78125 L 1.8125 -2.34375 L 2.390625 -2.34375 L 2.390625 0 Z M 1.8125 0 "/></g></g></g><g fill="#525252" fill-opacity="1"><g transform="translate(128.070471, 50.701456)"><g><path d="M 0.328125 0 L 0.328125 -3.3125 L 0.890625 -3.3125 L 0.890625 0 Z M 0.328125 0 "/></g></g></g><g fill="#525252" fill-opacity="1"><g transform="translate(129.575209, 50.701456)"><g><path d="M 0.328125 0 L 0.328125 -3.3125 L 0.890625 -3.3125 L 0.890625 0 Z M 0.328125 0 "/></g></g></g><g fill="#525252" fill-opacity="1"><g transform="translate(131.079947, 50.701456)"><g><path d="M 0.1875 -0.890625 L 0.1875 -1.453125 L 1.578125 -1.453125 L 1.578125 -0.890625 Z M 0.1875 -0.890625 "/></g></g></g><g fill="#525252" fill-opacity="1"><g transform="translate(133.112252, 50.701456)"><g><path d="M 2.546875 -0.890625 C 2.546875 -0.585938 2.441406 -0.351562 2.234375 -0.1875 C 2.035156 -0.0195312 1.738281 0.0625 1.34375 0.0625 C 1.070312 0.0625 0.835938 0.0195312 0.640625 -0.0625 C 0.441406 -0.15625 0.273438 -0.304688 0.140625 -0.515625 L 0.625 -0.875 C 0.695312 -0.78125 0.765625 -0.707031 0.828125 -0.65625 C 0.890625 -0.601562 0.960938 -0.5625 1.046875 -0.53125 C 1.140625 -0.507812 1.242188 -0.5 1.359375 -0.5 C 1.535156 -0.5 1.671875 -0.523438 1.765625 -0.578125 C 1.859375 -0.640625 1.90625 -0.726562 1.90625 -0.84375 C 1.90625 -0.914062 1.890625 -0.972656 1.859375 -1.015625 C 1.828125 -1.066406 1.773438 -1.109375 1.703125 -1.140625 C 1.640625 -1.171875 1.523438 -1.207031 1.359375 -1.25 C 1.203125 -1.289062 1.050781 -1.332031 0.90625 -1.375 C 0.757812 -1.425781 0.632812 -1.484375 0.53125 -1.546875 C 0.4375 -1.617188 0.359375 -1.707031 0.296875 -1.8125 C 0.234375 -1.914062 0.203125 -2.050781 0.203125 -2.21875 C 0.203125 -2.507812 0.300781 -2.734375 0.5 -2.890625 C 0.695312 -3.054688 0.976562 -3.140625 1.34375 -3.140625 C 1.882812 -3.140625 2.265625 -2.957031 2.484375 -2.59375 L 2 -2.21875 C 1.914062 -2.351562 1.820312 -2.445312 1.71875 -2.5 C 1.613281 -2.5625 1.488281 -2.59375 1.34375 -2.59375 C 1.195312 -2.59375 1.078125 -2.566406 0.984375 -2.515625 C 0.890625 -2.460938 0.84375 -2.378906 0.84375 -2.265625 C 0.84375 -2.160156 0.890625 -2.082031 0.984375 -2.03125 C 1.085938 -1.976562 1.253906 -1.925781 1.484375 -1.875 C 1.617188 -1.84375 1.75 -1.804688 1.875 -1.765625 C 2 -1.722656 2.113281 -1.664062 2.21875 -1.59375 C 2.320312 -1.53125 2.398438 -1.441406 2.453125 -1.328125 C 2.515625 -1.210938 2.546875 -1.066406 2.546875 -0.890625 Z M 2.546875 -0.890625 "/></g></g></g><g fill="#525252" fill-opacity="1"><g transform="translate(136.130684, 50.701456)"><g><path d="M 1.609375 0 C 1.460938 0.0390625 1.300781 0.0625 1.125 0.0625 C 0.851562 0.0625 0.65625 0.00390625 0.53125 -0.109375 C 0.414062 -0.234375 0.359375 -0.429688 0.359375 -0.703125 L 0.359375 -1.875 L 0.0625 -1.875 L 0.0625 -2.34375 L 0.359375 -2.34375 L 0.359375 -2.984375 L 0.9375 -2.984375 L 0.9375 -2.34375 L 1.484375 -2.34375 L 1.484375 -1.875 L 0.9375 -1.875 L 0.9375 -0.78125 C 0.9375 -0.632812 0.957031 -0.535156 1 -0.484375 C 1.050781 -0.429688 1.117188 -0.40625 1.203125 -0.40625 C 1.304688 -0.40625 1.410156 -0.425781 1.515625 -0.46875 Z M 1.609375 0 "/></g></g></g><g fill="#525252" fill-opacity="1"><g transform="translate(138.058366, 50.701456)"><g><path d="M 1.703125 0 L 1.703125 -0.25 C 1.472656 -0.0390625 1.226562 0.0625 0.96875 0.0625 C 0.707031 0.0625 0.507812 -0.00390625 0.375 -0.140625 C 0.25 -0.273438 0.1875 -0.445312 0.1875 -0.65625 C 0.1875 -0.820312 0.21875 -0.957031 0.28125 -1.0625 C 0.351562 -1.175781 0.453125 -1.265625 0.578125 -1.328125 C 0.710938 -1.390625 0.90625 -1.429688 1.15625 -1.453125 L 1.65625 -1.5 L 1.65625 -1.609375 C 1.65625 -1.734375 1.613281 -1.820312 1.53125 -1.875 C 1.457031 -1.925781 1.34375 -1.953125 1.1875 -1.953125 C 1.0625 -1.953125 0.953125 -1.929688 0.859375 -1.890625 C 0.773438 -1.847656 0.710938 -1.785156 0.671875 -1.703125 L 0.21875 -2 C 0.300781 -2.125 0.425781 -2.222656 0.59375 -2.296875 C 0.757812 -2.367188 0.960938 -2.40625 1.203125 -2.40625 C 1.566406 -2.40625 1.828125 -2.335938 1.984375 -2.203125 C 2.148438 -2.078125 2.234375 -1.875 2.234375 -1.59375 L 2.234375 0 Z M 1.65625 -1.078125 L 1.359375 -1.0625 C 1.148438 -1.039062 1 -1 0.90625 -0.9375 C 0.820312 -0.875 0.78125 -0.785156 0.78125 -0.671875 C 0.78125 -0.554688 0.804688 -0.476562 0.859375 -0.4375 C 0.921875 -0.40625 1.003906 -0.390625 1.109375 -0.390625 C 1.171875 -0.390625 1.253906 -0.410156 1.359375 -0.453125 C 1.460938 -0.492188 1.5625 -0.554688 1.65625 -0.640625 Z M 1.65625 -1.078125 "/></g></g></g><g fill="#525252" fill-opacity="1"><g transform="translate(140.876456, 50.701456)"><g><path d="M 2.25 -0.328125 C 2.164062 -0.203125 2.050781 -0.101562 1.90625 -0.03125 C 1.757812 0.03125 1.570312 0.0625 1.34375 0.0625 C 0.96875 0.0625 0.679688 -0.0351562 0.484375 -0.234375 C 0.296875 -0.441406 0.203125 -0.75 0.203125 -1.15625 C 0.203125 -1.550781 0.296875 -1.859375 0.484375 -2.078125 C 0.671875 -2.296875 0.953125 -2.40625 1.328125 -2.40625 C 1.523438 -2.40625 1.703125 -2.367188 1.859375 -2.296875 C 2.015625 -2.234375 2.132812 -2.132812 2.21875 -2 L 1.796875 -1.703125 C 1.742188 -1.765625 1.679688 -1.8125 1.609375 -1.84375 C 1.535156 -1.882812 1.445312 -1.90625 1.34375 -1.90625 C 1.144531 -1.90625 1.003906 -1.84375 0.921875 -1.71875 C 0.835938 -1.601562 0.796875 -1.414062 0.796875 -1.15625 C 0.796875 -0.90625 0.835938 -0.722656 0.921875 -0.609375 C 1.003906 -0.492188 1.148438 -0.4375 1.359375 -0.4375 C 1.453125 -0.4375 1.535156 -0.445312 1.609375 -0.46875 C 1.679688 -0.5 1.75 -0.554688 1.8125 -0.640625 Z M 2.25 -0.328125 "/></g></g></g><g fill="#525252" fill-opacity="1"><g transform="translate(143.516465, 50.701456)"><g><path d="M 1.75 0 L 1.125 -0.96875 L 0.890625 -0.71875 L 0.890625 0 L 0.328125 0 L 0.328125 -3.3125 L 0.890625 -3.3125 L 0.890625 -1.421875 L 1.6875 -2.34375 L 2.34375 -2.34375 L 1.46875 -1.359375 L 2.40625 0 Z M 1.75 0 "/></g></g></g></svg>