<svg xmlns="http://www.w3.org/2000/svg" width="25" height="27" viewBox="0 0 25 27" fill="none">
<path d="M10.8187 22.613C10.8186 22.4553 10.7861 22.2996 10.7233 22.1568C10.6606 22.0141 10.5691 21.8878 10.4555 21.7869C10.3419 21.686 10.2088 21.613 10.0658 21.5731C9.92273 21.5331 9.7732 21.5272 9.62778 21.5558C8.30792 21.814 6.64148 21.8529 6.1984 20.5259C5.81205 19.4982 5.17209 18.6011 4.34636 17.9297C4.28745 17.8955 4.2313 17.8562 4.17849 17.8121C4.10623 17.6088 3.97787 17.4337 3.81035 17.3098C3.64283 17.1859 3.44403 17.1191 3.24016 17.1181H3.23524C2.96866 17.118 2.7129 17.2305 2.52394 17.431C2.33498 17.6315 2.22821 17.9037 2.227 18.1879C2.22306 19.0646 3.04468 19.6262 3.37801 19.8162C3.77106 20.2373 4.08695 20.7329 4.30944 21.2776C4.6767 22.3778 5.74401 24.0471 8.81204 23.8319C8.81305 23.8697 8.814 23.9054 8.8145 23.9379L8.81893 24.2256C8.81893 24.5107 8.92515 24.7842 9.11423 24.9858C9.30331 25.1874 9.55976 25.3006 9.82716 25.3006C10.0946 25.3006 10.351 25.1874 10.5401 24.9858C10.7292 24.7842 10.8354 24.5107 10.8354 24.2256L10.8305 23.8833C10.8256 23.6796 10.8187 23.3846 10.8187 22.613ZM21.5735 6.35195C21.6055 6.21757 21.637 6.06849 21.6646 5.90052C21.8276 4.70248 21.6855 3.47973 21.253 2.36042C21.1984 2.21449 21.1146 2.08306 21.0074 1.97534C20.9001 1.86762 20.7721 1.78621 20.6322 1.73682C20.2733 1.60768 18.9481 1.35362 16.4137 3.08062C14.307 2.55201 12.114 2.55201 10.0074 3.08062C7.48332 1.37892 6.16493 1.60983 5.80948 1.73162C5.66618 1.779 5.53463 1.85998 5.42449 1.96862C5.31435 2.07725 5.22839 2.21079 5.17294 2.35944C4.73163 3.50025 4.59102 4.74793 4.76629 5.96774C4.79092 6.10527 4.81749 6.23231 4.84507 6.34883C4.00982 7.53507 3.56492 8.98199 3.57936 10.4653C3.57664 10.7962 3.59094 11.127 3.62219 11.4563C3.95894 16.4042 6.98364 17.8897 9.09117 18.4C9.04736 18.5344 9.00748 18.6782 8.97204 18.8304C8.90886 19.107 8.95114 19.399 9.08959 19.6425C9.22805 19.8859 9.45139 20.0608 9.71064 20.1289C9.96989 20.197 10.2439 20.1527 10.4725 20.0057C10.7012 19.8587 10.8659 19.6211 10.9304 19.3448C10.9946 18.9866 11.159 18.6576 11.402 18.401C11.549 18.2638 11.6554 18.0841 11.7083 17.8836C11.7612 17.6831 11.7583 17.4706 11.7 17.2718C11.6417 17.073 11.5305 16.8966 11.3798 16.764C11.2292 16.6314 11.0457 16.5484 10.8516 16.5249C7.3691 16.1008 5.85723 14.588 5.6298 11.2589C5.6046 10.9953 5.59326 10.7303 5.59583 10.4653C5.57965 9.40813 5.9072 8.37763 6.52283 7.54881C6.58469 7.4624 6.65058 7.37935 6.72024 7.29999C6.84368 7.15271 6.92668 6.97202 6.96012 6.77774C6.99355 6.58347 6.97614 6.38313 6.90979 6.19871C6.84177 6.0047 6.7894 5.80485 6.75324 5.60134C6.6711 5.02267 6.69805 4.43234 6.83249 3.8649C7.70878 4.12879 8.5335 4.55834 9.26738 5.1331C9.38874 5.21929 9.52606 5.27665 9.67004 5.30128C9.81401 5.32592 9.96127 5.31726 10.1018 5.27589C12.1396 4.68623 14.2879 4.6866 16.3255 5.27696C16.4668 5.31829 16.6149 5.32645 16.7594 5.3009C16.904 5.27535 17.0417 5.21668 17.1629 5.12894C17.8934 4.55179 18.7146 4.1184 19.588 3.84918C19.7219 4.40299 19.7518 4.97954 19.6761 5.54572C19.6396 5.76883 19.5826 5.98756 19.5058 6.19873C19.4394 6.38315 19.422 6.58349 19.4555 6.77776C19.4889 6.97204 19.5719 7.15273 19.6953 7.30001C19.7731 7.39344 19.8509 7.49423 19.9208 7.58871C20.5321 8.4035 20.8541 9.42216 20.8301 10.4653C20.8319 10.7443 20.8193 11.0233 20.7922 11.3009C20.5702 14.5859 19.0524 16.0998 15.5536 16.5249C15.3595 16.5485 15.176 16.6317 15.0254 16.7644C14.8748 16.8972 14.7636 17.0737 14.7053 17.2725C14.6471 17.4714 14.6443 17.684 14.6972 17.8845C14.7502 18.0851 14.8567 18.2649 15.0037 18.4021C15.2544 18.6655 15.4192 19.0077 15.4739 19.3784C15.542 19.6662 15.5733 19.9625 15.5669 20.2592V22.7684C15.5571 23.4644 15.5571 23.9862 15.5571 24.2255C15.5571 24.5106 15.6633 24.7841 15.8524 24.9857C16.0414 25.1873 16.2979 25.3006 16.5653 25.3006C16.8327 25.3006 17.0891 25.1873 17.2782 24.9857C17.4673 24.7841 17.5735 24.5106 17.5735 24.2255C17.5735 23.9925 17.5735 23.4812 17.5834 22.7852V20.2592C17.5915 19.7839 17.539 19.3096 17.4273 18.8493C17.3954 18.6982 17.3563 18.5489 17.3101 18.4021C18.8439 18.1304 20.2375 17.2872 21.2429 16.0226C22.2482 14.758 22.8001 13.154 22.8003 11.4962C22.8335 11.1537 22.849 10.8096 22.8466 10.4653C22.869 8.98038 22.4204 7.53095 21.5735 6.35195Z" fill="#ed6a00"/>
</svg>