<svg xmlns="http://www.w3.org/2000/svg" width="26" height="27" viewBox="0 0 26 27" fill="none">
<path d="M18.5072 10.2458C17.6045 10.2454 16.7159 10.4835 15.9206 10.9387C15.848 10.7349 15.719 10.5595 15.5507 10.4357C15.3824 10.312 15.1828 10.2457 14.9783 10.2458H10.9454C10.813 10.2458 10.6818 10.2735 10.5595 10.3275C10.4371 10.3815 10.3259 10.4607 10.2323 10.5605C10.1387 10.6604 10.0644 10.7789 10.0138 10.9094C9.96312 11.0398 9.93709 11.1797 9.93716 11.3209V24.2213C9.93709 24.3625 9.96311 24.5024 10.0138 24.6328C10.0644 24.7633 10.1387 24.8818 10.2323 24.9817C10.3259 25.0815 10.4371 25.1607 10.5595 25.2147C10.6818 25.2687 10.813 25.2964 10.9454 25.2964H14.9783C15.1108 25.2964 15.2419 25.2687 15.3643 25.2147C15.4866 25.1607 15.5978 25.0815 15.6914 24.9817C15.7851 24.8818 15.8593 24.7633 15.91 24.6328C15.9606 24.5024 15.9867 24.3625 15.9866 24.2213V18.3086C15.9866 18.0235 16.0928 17.7501 16.2819 17.5485C16.471 17.3468 16.7274 17.2336 16.9948 17.2336C17.2622 17.2336 17.5187 17.3468 17.7077 17.5485C17.8968 17.7501 18.003 18.0235 18.003 18.3086V24.2213C18.003 24.3625 18.029 24.5024 18.0796 24.6328C18.1303 24.7633 18.2045 24.8818 18.2982 24.9817C18.3918 25.0815 18.503 25.1607 18.6254 25.2147C18.7477 25.2687 18.8789 25.2964 19.0113 25.2964H23.0442C23.1766 25.2964 23.3078 25.2687 23.4301 25.2147C23.5525 25.1607 23.6637 25.0815 23.7573 24.9817C23.851 24.8818 23.9252 24.7633 23.9759 24.6328C24.0265 24.5024 24.0525 24.3625 24.0525 24.2213V16.1585C24.0506 14.591 23.4658 13.0882 22.4263 11.9798C21.3867 10.8714 19.9773 10.2478 18.5072 10.2458ZM22.036 23.1463H20.0195V18.3086C20.0195 17.4533 19.7008 16.6329 19.1336 16.0281C18.5664 15.4233 17.797 15.0835 16.9948 15.0835C16.1926 15.0835 15.4233 15.4233 14.856 16.0281C14.2888 16.6329 13.9701 17.4533 13.9701 18.3086V23.1463H11.9536V12.3959H13.9701V13.1518C13.9702 13.3745 14.0352 13.5918 14.1561 13.7734C14.2769 13.9551 14.4477 14.0923 14.6448 14.1661C14.842 14.2398 15.0557 14.2465 15.2565 14.1852C15.4574 14.1238 15.6354 13.9975 15.766 13.8237C16.2185 13.211 16.8391 12.7642 17.5413 12.5457C18.2434 12.3273 18.992 12.3481 19.6825 12.6052C20.373 12.8624 20.971 13.343 21.3929 13.98C21.8148 14.6171 22.0397 15.3787 22.036 16.1585V23.1463ZM7.92069 10.2458H3.88775C3.75533 10.2458 3.62419 10.2735 3.50183 10.3275C3.37947 10.3815 3.26829 10.4607 3.17465 10.5605C3.08102 10.6604 3.00675 10.7789 2.95611 10.9094C2.90547 11.0398 2.87944 11.1797 2.87952 11.3209V24.2213C2.87944 24.3625 2.90547 24.5024 2.95611 24.6328C3.00675 24.7633 3.08101 24.8818 3.17465 24.9817C3.26829 25.0815 3.37947 25.1607 3.50183 25.2147C3.62419 25.2687 3.75533 25.2964 3.88775 25.2964H7.92069C8.05312 25.2964 8.18426 25.2687 8.30662 25.2147C8.42898 25.1607 8.54016 25.0815 8.63379 24.9817C8.72743 24.8818 8.8017 24.7633 8.85234 24.6328C8.90298 24.5024 8.92901 24.3625 8.92893 24.2213V11.3209C8.929 11.1797 8.90298 11.0398 8.85234 10.9094C8.80169 10.7789 8.72743 10.6604 8.63379 10.5605C8.54015 10.4607 8.42898 10.3815 8.30662 10.3275C8.18426 10.2735 8.05312 10.2458 7.92069 10.2458ZM6.91246 23.1463H4.89599V12.3959H6.91246V23.1463ZM5.91899 2.22927C5.47775 2.20111 5.03575 2.26894 4.61986 2.42863C4.20397 2.58833 3.8229 2.83655 3.4998 3.15821C3.17671 3.47986 2.91835 3.86823 2.74044 4.29969C2.56253 4.73115 2.46879 5.19669 2.46491 5.66799C2.46103 6.13929 2.5471 6.60651 2.71788 7.04123C2.88867 7.47596 3.14059 7.8691 3.45834 8.19675C3.77609 8.5244 4.15303 8.77971 4.56622 8.94716C4.97942 9.11461 5.42024 9.1907 5.86188 9.1708H5.89043C6.33284 9.19881 6.77596 9.13036 7.19272 8.9696C7.60948 8.80885 7.99112 8.55918 8.31433 8.23584C8.63753 7.91251 8.89552 7.5223 9.07251 7.08907C9.2495 6.65583 9.34179 6.18867 9.34373 5.71612C9.34568 5.24357 9.25724 4.77556 9.08381 4.34068C8.91039 3.90581 8.65563 3.5132 8.3351 3.18686C8.01456 2.86052 7.63499 2.60728 7.21957 2.44264C6.80415 2.27799 6.36162 2.20539 5.91899 2.22927ZM5.89044 7.02072H5.86188C5.68752 7.04329 5.51065 7.02586 5.34313 6.96958C5.17561 6.9133 5.02131 6.81948 4.89059 6.69441C4.75986 6.56934 4.65572 6.41591 4.58516 6.24441C4.5146 6.07291 4.47925 5.88731 4.48147 5.70005C4.48147 4.89796 5.04565 4.37934 5.91899 4.37934C6.09513 4.3543 6.27425 4.3698 6.4443 4.4248C6.61435 4.47979 6.77136 4.573 6.90478 4.69815C7.0382 4.82329 7.14491 4.97747 7.21774 5.15029C7.29057 5.32312 7.32782 5.51058 7.32697 5.70005C7.32697 6.50212 6.7628 7.02072 5.89044 7.02072Z" fill="#ed6a00"/>
</svg>