<svg xmlns="http://www.w3.org/2000/svg" width="23" height="25" viewBox="0 0 23 25" fill="none">
<path d="M3.84599 8.2563H16.9127C17.1052 8.2563 17.2899 8.14757 17.426 7.95403C17.5622 7.76048 17.6386 7.49798 17.6386 7.22427C17.6386 6.95055 17.5622 6.68805 17.426 6.49451C17.2899 6.30096 17.1052 6.19223 16.9127 6.19223H3.84599C3.65346 6.19223 3.46881 6.30096 3.33268 6.49451C3.19654 6.68805 3.12006 6.95055 3.12006 7.22427C3.12006 7.49798 3.19654 7.76048 3.33268 7.95403C3.46881 8.14757 3.65346 8.2563 3.84599 8.2563ZM16.9127 16.5126H3.84599C3.65346 16.5126 3.46881 16.6213 3.33268 16.8149C3.19654 17.0084 3.12006 17.2709 3.12006 17.5446C3.12006 17.8183 3.19654 18.0808 3.33268 18.2744C3.46881 18.4679 3.65346 18.5767 3.84599 18.5767H16.9127C17.1052 18.5767 17.2899 18.4679 17.426 18.2744C17.5622 18.0808 17.6386 17.8183 17.6386 17.5446C17.6386 17.2709 17.5622 17.0084 17.426 16.8149C17.2899 16.6213 17.1052 16.5126 16.9127 16.5126ZM16.9127 11.3524H3.84599C3.65346 11.3524 3.46881 11.4611 3.33268 11.6547C3.19654 11.8482 3.12006 12.1107 3.12006 12.3844C3.12006 12.6582 3.19654 12.9207 3.33268 13.1142C3.46881 13.3078 3.65346 13.4165 3.84599 13.4165H16.9127C17.1052 13.4165 17.2899 13.3078 17.426 13.1142C17.5622 12.9207 17.6386 12.6582 17.6386 12.3844C17.6386 12.1107 17.5622 11.8482 17.426 11.6547C17.2899 11.4611 17.1052 11.3524 16.9127 11.3524Z" fill="#ed6a00"/>
</svg>