<svg xmlns="http://www.w3.org/2000/svg" width="20" height="21" viewBox="0 0 20 21" fill="none">
<path d="M16.3334 10.2935C16.2252 10.2015 16.0941 10.1426 15.955 10.1235C15.8159 10.1044 15.6743 10.1259 15.5465 10.1855C14.754 10.5587 13.8924 10.7507 13.0209 10.7485C11.4087 10.7465 9.86267 10.0887 8.71988 8.91855C7.57709 7.74842 6.93024 6.16083 6.92035 4.50196C6.92377 3.98206 6.98665 3.46438 7.10771 2.95961C7.1334 2.82507 7.12376 2.68592 7.0798 2.55648C7.03583 2.42705 6.95912 2.31202 6.85758 2.22324C6.75603 2.13446 6.63332 2.07515 6.50208 2.05141C6.37084 2.02767 6.23583 2.04037 6.11094 2.08818C4.93605 2.63179 3.91474 3.4738 3.14294 4.53511C2.37115 5.59641 1.87422 6.84218 1.69882 8.15538C1.52343 9.46858 1.67533 10.8061 2.14026 12.0423C2.60519 13.2785 3.36789 14.3728 4.35671 15.2224C5.34552 16.072 6.52799 16.649 7.79304 16.8992C9.05809 17.1494 10.3642 17.0646 11.5886 16.6527C12.8131 16.2409 13.9157 15.5155 14.7929 14.5448C15.67 13.574 16.293 12.3897 16.6032 11.1032C16.641 10.9559 16.6356 10.8004 16.5875 10.6563C16.5395 10.5122 16.4511 10.3859 16.3334 10.2935ZM9.21366 15.4526C7.95591 15.4435 6.73164 15.0345 5.70848 14.2818C4.68533 13.529 3.91331 12.4692 3.49813 11.2475C3.08294 10.0258 3.0449 8.70191 3.3892 7.4571C3.7335 6.21228 4.44331 5.1074 5.42145 4.29374V4.50196C5.42343 6.57524 6.22472 8.56303 7.64946 10.0291C9.0742 11.4951 11.006 12.3196 13.0209 12.3217C13.5499 12.3237 14.0776 12.2668 14.5947 12.152C14.0775 13.1588 13.303 14.0012 12.3547 14.5882C11.4064 15.1753 10.3204 15.4849 9.21366 15.4835V15.4526Z" fill="#ed6a00"/>
</svg>